<svg width="40" height="40" viewBox="0 0 40 40" fill="none" xmlns="http://www.w3.org/2000/svg">
<path d="M38.4301 24.6009C35.8939 34.7787 25.5824 40.9733 15.4016 38.4333C5.22077 35.8933 -0.970903 25.5869 1.56926 15.4081C4.10943 5.22932 14.4158 -0.968078 24.5944 1.57229C34.7729 4.11266 40.9703 14.4197 38.4301 24.6009Z" fill="#17011B"/>
<g opacity="0.4">
<path opacity="0.4" d="M28.9635 34.2336C28.7563 34.2336 28.5575 34.1513 28.411 34.0048C28.2645 33.8583 28.1821 33.6595 28.1821 33.4523C28.1821 33.245 28.2645 33.0463 28.411 32.8998C28.5575 32.7532 28.7563 32.6709 28.9635 32.6709C29.1706 32.6709 29.3692 32.7532 29.5157 32.8996C29.6621 33.0461 29.7444 33.2447 29.7444 33.4518C29.7444 33.6589 29.6621 33.8575 29.5157 34.004C29.3692 34.1504 29.1706 34.2336 28.9635 34.2336Z" fill="#5D026E"/>
<path opacity="0.4" fill-rule="evenodd" clip-rule="evenodd" d="M28.5102 33.451C28.5102 33.5703 28.5576 33.6847 28.642 33.7691C28.7263 33.8534 28.8407 33.9008 28.96 33.9008C29.0793 33.9008 29.1937 33.8534 29.2781 33.7691C29.3625 33.6847 29.4099 33.5703 29.4099 33.451C29.4099 33.3318 29.3625 33.2175 29.2782 33.1332C29.194 33.049 29.0797 33.0016 28.9605 33.0016C28.8413 33.0016 28.727 33.049 28.6428 33.1332C28.5585 33.2175 28.5102 33.3318 28.5102 33.451ZM28.3687 33.451C28.3687 33.608 28.431 33.7585 28.542 33.8695C28.653 33.9805 28.8035 34.0428 28.9605 34.0428C29.1175 34.0428 29.268 33.9805 29.379 33.8695C29.49 33.7585 29.5524 33.608 29.5524 33.451C29.5524 33.294 29.49 33.1435 29.379 33.0325C29.268 32.9215 29.1175 32.8591 28.9605 32.8591C28.8035 32.8591 28.653 32.9215 28.542 33.0325C28.431 33.1435 28.3687 33.294 28.3687 33.451Z" fill="#6EBEE0"/>
<path opacity="0.4" d="M32.4871 30.0687C32.4871 29.9662 32.4669 29.8646 32.4277 29.7699C32.3884 29.6752 32.3309 29.5891 32.2584 29.5166C32.1859 29.444 32.0998 29.3865 32.005 29.3473C31.9103 29.308 31.8087 29.2878 31.7062 29.2878C31.6036 29.2878 31.5021 29.308 31.4074 29.3473C31.3126 29.3865 31.2265 29.444 31.154 29.5166C31.0815 29.5891 31.024 29.6752 30.9847 29.7699C30.9455 29.8646 30.9253 29.9662 30.9253 30.0687C30.9253 30.2758 31.0076 30.4745 31.154 30.6209C31.3005 30.7674 31.4991 30.8496 31.7062 30.8496C31.9133 30.8496 32.1119 30.7674 32.2584 30.6209C32.4048 30.4745 32.4871 30.2758 32.4871 30.0687Z" fill="#5D026E"/>
<path opacity="0.4" fill-rule="evenodd" clip-rule="evenodd" d="M31.7054 29.6186C31.8247 29.6186 31.9391 29.666 32.0234 29.7503C32.1078 29.8347 32.1552 29.9491 32.1552 30.0684C32.1552 30.1877 32.1078 30.3021 32.0234 30.3865C31.9391 30.4708 31.8247 30.5182 31.7054 30.5182C31.586 30.5182 31.4716 30.4708 31.3873 30.3865C31.3029 30.3021 31.2555 30.1877 31.2555 30.0684C31.2555 29.9491 31.3029 29.8347 31.3873 29.7503C31.4716 29.666 31.586 29.6186 31.7054 29.6186ZM31.7054 29.4761C31.8623 29.4761 32.0129 29.5384 32.1239 29.6494C32.2348 29.7604 32.2972 29.911 32.2972 30.0679C32.2972 30.2249 32.2348 30.3754 32.1239 30.4864C32.0129 30.5974 31.8623 30.6598 31.7054 30.6598C31.5526 30.6537 31.4082 30.5887 31.3023 30.4784C31.1964 30.3682 31.1372 30.2213 31.1372 30.0684C31.1372 29.9155 31.1964 29.7686 31.3023 29.6584C31.4082 29.5481 31.5526 29.4822 31.7054 29.4761Z" fill="#6EBEE0"/>
<path opacity="0.4" d="M32.4871 23.584C32.4871 23.4814 32.4669 23.3799 32.4277 23.2852C32.3884 23.1904 32.3309 23.1043 32.2584 23.0318C32.1859 22.9593 32.0998 22.9018 32.005 22.8625C31.9103 22.8233 31.8087 22.8031 31.7062 22.8031C31.6036 22.8031 31.5021 22.8233 31.4074 22.8625C31.3126 22.9018 31.2265 22.9593 31.154 23.0318C31.0815 23.1043 31.024 23.1904 30.9847 23.2852C30.9455 23.3799 30.9253 23.4814 30.9253 23.584C30.9253 23.7911 31.0076 23.9897 31.154 24.1362C31.3005 24.2826 31.4991 24.3649 31.7062 24.3649C31.9133 24.3649 32.1119 24.2826 32.2584 24.1362C32.4048 23.9897 32.4871 23.7911 32.4871 23.584Z" fill="#5D026E"/>
<path opacity="0.4" fill-rule="evenodd" clip-rule="evenodd" d="M31.7054 23.1349C31.8247 23.1349 31.9391 23.1823 32.0234 23.2667C32.1078 23.351 32.1552 23.4655 32.1552 23.5848C32.1552 23.7041 32.1078 23.8185 32.0234 23.9028C31.9391 23.9872 31.8247 24.0346 31.7054 24.0346C31.586 24.0346 31.4716 23.9872 31.3873 23.9028C31.3029 23.8185 31.2555 23.7041 31.2555 23.5848C31.2555 23.4655 31.3029 23.351 31.3873 23.2667C31.4716 23.1823 31.586 23.1349 31.7054 23.1349ZM31.7054 22.9924C31.8623 22.9924 32.0129 23.0548 32.1239 23.1658C32.2348 23.2768 32.2972 23.4273 32.2972 23.5843C32.2972 23.7412 32.2348 23.8918 32.1239 24.0028C32.0129 24.1138 31.8623 24.1761 31.7054 24.1761C31.5526 24.17 31.4082 24.105 31.3023 23.9948C31.1964 23.8846 31.1372 23.7376 31.1372 23.5848C31.1372 23.4319 31.1964 23.285 31.3023 23.1747C31.4082 23.0645 31.5526 22.9986 31.7054 22.9924Z" fill="#6EBEE0"/>
<path opacity="0.4" d="M34.3797 22.1182C34.3797 21.9111 34.2974 21.7124 34.1509 21.566C34.0045 21.4196 33.8059 21.3373 33.5988 21.3373C33.3917 21.3373 33.193 21.4196 33.0466 21.566C32.9001 21.7124 32.8179 21.9111 32.8179 22.1182C32.8179 22.3253 32.9001 22.5239 33.0466 22.6704C33.193 22.8168 33.3917 22.8991 33.5988 22.8991C33.8059 22.8991 34.0045 22.8168 34.1509 22.6704C34.2974 22.5239 34.3797 22.3253 34.3797 22.1182Z" fill="#5D026E"/>
<path opacity="0.4" fill-rule="evenodd" clip-rule="evenodd" d="M33.6011 21.669C33.7204 21.669 33.8348 21.7164 33.9192 21.8007C34.0036 21.8851 34.051 21.9995 34.051 22.1188C34.051 22.2381 34.0036 22.3525 33.9192 22.4369C33.8348 22.5212 33.7204 22.5686 33.6011 22.5686C33.4818 22.5686 33.3674 22.5212 33.2831 22.4369C33.1987 22.3525 33.1513 22.2381 33.1513 22.1188C33.1513 21.9995 33.1987 21.8851 33.2831 21.8007C33.3674 21.7164 33.4818 21.669 33.6011 21.669ZM33.6011 21.5265C33.7581 21.5265 33.9086 21.5888 34.0196 21.6998C34.1306 21.8108 34.193 21.9614 34.193 22.1183C34.193 22.2753 34.1306 22.4258 34.0196 22.5368C33.9086 22.6478 33.7581 22.7102 33.6011 22.7102C33.4442 22.7102 33.2936 22.6478 33.1826 22.5368C33.0716 22.4258 33.0093 22.2753 33.0093 22.1183C33.0093 21.9614 33.0716 21.8108 33.1826 21.6998C33.2936 21.5888 33.4442 21.5265 33.6011 21.5265Z" fill="#6EBEE0"/>
<path opacity="0.4" d="M35.8474 17.9772C35.8474 17.7701 35.7652 17.5715 35.6187 17.425C35.4723 17.2786 35.2737 17.1963 35.0665 17.1963C34.8594 17.1963 34.6608 17.2786 34.5144 17.425C34.3679 17.5715 34.2856 17.7701 34.2856 17.9772C34.2856 18.1843 34.3679 18.3829 34.5144 18.5294C34.6608 18.6758 34.8594 18.7581 35.0665 18.7581C35.2737 18.7581 35.4723 18.6758 35.6187 18.5294C35.7652 18.3829 35.8474 18.1843 35.8474 17.9772Z" fill="#5D026E"/>
<path opacity="0.4" fill-rule="evenodd" clip-rule="evenodd" d="M35.0679 17.5278C35.1871 17.5278 35.3014 17.5751 35.3857 17.6594C35.4699 17.7436 35.5173 17.8579 35.5173 17.9771C35.5173 18.0963 35.4699 18.2106 35.3857 18.2948C35.3014 18.3791 35.1871 18.4265 35.0679 18.4265C34.9488 18.4265 34.8345 18.3791 34.7502 18.2948C34.6659 18.2106 34.6186 18.0963 34.6186 17.9771C34.6186 17.8579 34.6659 17.7436 34.7502 17.6594C34.8345 17.5751 34.9488 17.5278 35.0679 17.5278ZM35.0679 17.3853C35.1456 17.3853 35.2226 17.4006 35.2944 17.4303C35.3662 17.4601 35.4315 17.5036 35.4864 17.5586C35.5414 17.6136 35.585 17.6788 35.6147 17.7506C35.6445 17.8224 35.6598 17.8994 35.6598 17.9771C35.6598 18.0548 35.6445 18.1318 35.6147 18.2036C35.585 18.2754 35.5414 18.3406 35.4864 18.3956C35.4315 18.4506 35.3662 18.4942 35.2944 18.5239C35.2226 18.5536 35.1456 18.569 35.0679 18.569C34.911 18.569 34.7604 18.5066 34.6494 18.3956C34.5384 18.2846 34.4761 18.1341 34.4761 17.9771C34.4761 17.8201 34.5384 17.6696 34.6494 17.5586C34.7604 17.4476 34.911 17.3853 35.0679 17.3853Z" fill="#6EBEE0"/>
<path opacity="0.4" d="M34.3797 27.9863C34.3797 27.7792 34.2974 27.5806 34.1509 27.4342C34.0045 27.2877 33.8059 27.2054 33.5988 27.2054C33.3917 27.2054 33.193 27.2877 33.0466 27.4342C32.9001 27.5806 32.8179 27.7792 32.8179 27.9863C32.8179 28.1935 32.9001 28.3921 33.0466 28.5385C33.193 28.685 33.3917 28.7672 33.5988 28.7672C33.8059 28.7672 34.0045 28.685 34.1509 28.5385C34.2974 28.3921 34.3797 28.1935 34.3797 27.9863Z" fill="#5D026E"/>
<path opacity="0.4" fill-rule="evenodd" clip-rule="evenodd" d="M33.6009 27.5362C33.7202 27.5362 33.8346 27.5836 33.9189 27.6679C34.0033 27.7523 34.0507 27.8667 34.0507 27.986C34.0507 28.1053 34.0033 28.2197 33.9189 28.3041C33.8346 28.3884 33.7202 28.4358 33.6009 28.4358C33.4816 28.4358 33.3671 28.3884 33.2828 28.3041C33.1984 28.2197 33.151 28.1053 33.151 27.986C33.151 27.8667 33.1984 27.7523 33.2828 27.6679C33.3671 27.5836 33.4816 27.5362 33.6009 27.5362ZM33.6009 27.3937C33.7578 27.3937 33.9084 27.456 34.0194 27.567C34.1304 27.678 34.1927 27.8286 34.1927 27.9855C34.1927 28.1425 34.1304 28.293 34.0194 28.404C33.9084 28.515 33.7578 28.5774 33.6009 28.5774C33.4481 28.5713 33.3037 28.5063 33.1978 28.396C33.0919 28.2858 33.0327 28.1389 33.0327 27.986C33.0327 27.8331 33.0919 27.6862 33.1978 27.576C33.3037 27.4657 33.4481 27.4008 33.6009 27.3946V27.3937Z" fill="#6EBEE0"/>
<path opacity="0.4" d="M32.9617 26.8501C32.9617 26.643 32.8794 26.4444 32.733 26.2979C32.5865 26.1515 32.3879 26.0692 32.1808 26.0692C31.9737 26.0692 31.7751 26.1515 31.6286 26.2979C31.4822 26.4444 31.3999 26.643 31.3999 26.8501C31.3999 27.0572 31.4822 27.2558 31.6286 27.4023C31.7751 27.5487 31.9737 27.631 32.1808 27.631C32.3879 27.631 32.5865 27.5487 32.733 27.4023C32.8794 27.2558 32.9617 27.0572 32.9617 26.8501Z" fill="#5D026E"/>
<path opacity="0.4" fill-rule="evenodd" clip-rule="evenodd" d="M32.1809 26.3999C32.3002 26.3999 32.4147 26.4473 32.499 26.5317C32.5834 26.6161 32.6308 26.7305 32.6308 26.8498C32.6308 26.9691 32.5834 27.0835 32.499 27.1678C32.4147 27.2522 32.3002 27.2996 32.1809 27.2996C32.0616 27.2996 31.9472 27.2522 31.8629 27.1678C31.7785 27.0835 31.7311 26.9691 31.7311 26.8498C31.7311 26.7305 31.7785 26.6161 31.8629 26.5317C31.9472 26.4473 32.0616 26.3999 32.1809 26.3999ZM32.1809 26.2574C32.3379 26.2574 32.4884 26.3198 32.5994 26.4308C32.7104 26.5418 32.7728 26.6923 32.7728 26.8493C32.7728 27.0063 32.7104 27.1568 32.5994 27.2678C32.4884 27.3788 32.3379 27.4411 32.1809 27.4411C32.0282 27.435 31.8837 27.37 31.7778 27.2598C31.6719 27.1496 31.6128 27.0026 31.6128 26.8498C31.6128 26.6969 31.6719 26.55 31.7778 26.4397C31.8837 26.3295 32.0282 26.2636 32.1809 26.2574Z" fill="#6EBEE0"/>
<path opacity="0.4" d="M34.0486 25.1467C34.0486 24.9396 33.9663 24.741 33.8199 24.5946C33.6734 24.4481 33.4748 24.3658 33.2677 24.3658C33.0606 24.3658 32.862 24.4481 32.7155 24.5946C32.5691 24.741 32.4868 24.9396 32.4868 25.1467C32.4868 25.3539 32.5691 25.5525 32.7155 25.6989C32.862 25.8454 33.0606 25.9276 33.2677 25.9276C33.4748 25.9276 33.6734 25.8454 33.8199 25.6989C33.9663 25.5525 34.0486 25.3539 34.0486 25.1467Z" fill="#5D026E"/>
<path opacity="0.4" fill-rule="evenodd" clip-rule="evenodd" d="M33.2679 24.6966C33.3872 24.6966 33.5016 24.744 33.5859 24.8283C33.6703 24.9127 33.7177 25.0271 33.7177 25.1464C33.7177 25.2657 33.6703 25.3801 33.5859 25.4645C33.5016 25.5488 33.3872 25.5962 33.2679 25.5962C33.1485 25.5962 33.0341 25.5488 32.9498 25.4645C32.8654 25.3801 32.818 25.2657 32.818 25.1464C32.818 25.0271 32.8654 24.9127 32.9498 24.8283C33.0341 24.744 33.1485 24.6966 33.2679 24.6966ZM33.2679 24.5541C33.3456 24.5541 33.4225 24.5694 33.4943 24.5991C33.5661 24.6289 33.6314 24.6725 33.6864 24.7274C33.7413 24.7824 33.7849 24.8476 33.8146 24.9194C33.8444 24.9912 33.8597 25.0682 33.8597 25.1459C33.8597 25.2236 33.8444 25.3006 33.8146 25.3724C33.7849 25.4442 33.7413 25.5095 33.6864 25.5644C33.6314 25.6194 33.5661 25.663 33.4943 25.6927C33.4225 25.7225 33.3456 25.7378 33.2679 25.7378C33.1151 25.7317 32.9707 25.6667 32.8648 25.5564C32.7589 25.4462 32.6997 25.2993 32.6997 25.1464C32.6997 24.9935 32.7589 24.8466 32.8648 24.7364C32.9707 24.6261 33.1151 24.5602 33.2679 24.5541Z" fill="#6EBEE0"/>
<path opacity="0.4" fill-rule="evenodd" clip-rule="evenodd" d="M28.4668 30.9904H29.6011L30.1929 30.3995H31.0935V29.8314H29.9583L29.3664 30.4223H28.7024L27.4009 29.1208H25.4144V29.6889H27.1662L28.4668 30.9904ZM28.1124 28.7902H30.4703L31.0375 28.2696H32.9384V27.7015H30.8171L30.249 28.2221H28.3471L26.7862 26.6603H23.9001V27.2284H26.5506L28.1124 28.7902ZM28.4668 27.1809H31.5657V26.6128H28.7024L27.4009 25.3113H22.2671V25.8794H27.1662L28.4668 27.1809ZM29.3664 25.43H32.6306V24.8619H29.6011L28.3471 23.6079H26.5506L25.9588 24.1998H22.2671V24.7679H26.1944L26.7862 24.176H28.1124L29.3664 25.43ZM29.3664 23.8445H31.0935V23.2773H29.602L28.348 22.0233H23.9001V22.5905H28.1124L29.3664 23.8445ZM30.5254 22.4014H32.9859V21.8333H30.761L30.3592 21.4324V20.7218L29.0102 19.3728H27.7571L26.8584 20.2715H25.4144V20.8396H27.094L27.9927 19.9409H28.7746L29.7911 20.9574V21.6671L30.5254 22.4014Z" fill="#5D026E"/>
<path opacity="0.4" fill-rule="evenodd" clip-rule="evenodd" d="M28.5551 30.7775H29.5137L30.1046 30.1866H31.1876V30.0441H30.0457L29.4548 30.636H28.614L27.3125 29.3345H25.4144V29.477H27.2536L28.5551 30.7785V30.7775ZM28.2008 28.5773H30.3867L30.9548 28.0567H33.0334V27.9142H30.8997L30.3316 28.4358H28.2597L26.6979 26.874H23.9001V27.0165H26.639L28.2008 28.5773ZM28.5551 26.968H31.6616V26.8265H28.614L27.3125 25.525H22.268V25.6675H27.2536L28.5551 26.969V26.968ZM29.4548 25.2172H32.7256V25.0747H29.5137L28.2597 23.8207H26.639L26.0471 24.4125H22.2671V24.555H26.106L26.6979 23.9632H28.2008L29.4548 25.2172ZM29.4548 23.6326H31.1401V23.4901H29.5137L28.2597 22.2361H23.8992V22.3786H28.2008L29.4548 23.6326ZM30.6138 22.1886H33.0334V22.0461H30.6727L30.1464 21.5207V20.8111L28.9218 19.5856H27.8455L26.9468 20.4852H25.4135V20.6277H27.0047L27.9034 19.7281H28.8629L30.0029 20.87V21.5796L30.6128 22.1886H30.6138Z" fill="#6EBEE0"/>
<path opacity="0.4" d="M31.0213 7.89674C31.0213 8.10385 30.939 8.30248 30.7926 8.44892C30.6461 8.59537 30.4475 8.67764 30.2404 8.67764C30.0333 8.67764 29.8346 8.59537 29.6882 8.44892C29.5417 8.30248 29.4595 8.10385 29.4595 7.89674C29.4595 7.68964 29.5417 7.49101 29.6882 7.34457C29.8346 7.19812 30.0333 7.11584 30.2404 7.11584C30.4475 7.11584 30.6461 7.19812 30.7926 7.34457C30.939 7.49101 31.0213 7.68964 31.0213 7.89674Z" fill="#5D026E"/>
<path opacity="0.4" fill-rule="evenodd" clip-rule="evenodd" d="M30.2398 8.34699C30.2988 8.34699 30.3572 8.33536 30.4118 8.31278C30.4663 8.2902 30.5158 8.2571 30.5575 8.21537C30.5993 8.17365 30.6324 8.12411 30.6549 8.0696C30.6775 8.01508 30.6891 7.95665 30.6891 7.89764C30.6891 7.83863 30.6775 7.7802 30.6549 7.72568C30.6324 7.67116 30.5993 7.62162 30.5575 7.5799C30.5158 7.53817 30.4663 7.50507 30.4118 7.48249C30.3572 7.45991 30.2988 7.44829 30.2398 7.44829C30.1206 7.44829 30.0063 7.49563 29.9221 7.5799C29.8378 7.66417 29.7904 7.77846 29.7904 7.89764C29.7904 8.01681 29.8378 8.13111 29.9221 8.21537C30.0063 8.29964 30.1206 8.34699 30.2398 8.34699ZM30.2398 8.48949C30.3968 8.48949 30.5473 8.42713 30.6583 8.31614C30.7693 8.20514 30.8316 8.0546 30.8316 7.89764C30.8316 7.74067 30.7693 7.59013 30.6583 7.47914C30.5473 7.36814 30.3968 7.30579 30.2398 7.30579C30.0828 7.30579 29.9323 7.36814 29.8213 7.47914C29.7103 7.59013 29.6479 7.74067 29.6479 7.89764C29.6479 8.0546 29.7103 8.20514 29.8213 8.31614C29.9323 8.42713 30.0828 8.48949 30.2398 8.48949Z" fill="#6EBEE0"/>
<path opacity="0.4" d="M31.0213 14.3804C31.0213 14.5875 30.939 14.7861 30.7926 14.9326C30.6461 15.079 30.4475 15.1613 30.2404 15.1613C30.0333 15.1613 29.8346 15.079 29.6882 14.9326C29.5417 14.7861 29.4595 14.5875 29.4595 14.3804C29.4595 14.1733 29.5417 13.9747 29.6882 13.8282C29.8346 13.6818 30.0333 13.5995 30.2404 13.5995C30.4475 13.5995 30.6461 13.6818 30.7926 13.8282C30.939 13.9747 31.0213 14.1733 31.0213 14.3804Z" fill="#5D026E"/>
<path opacity="0.4" fill-rule="evenodd" clip-rule="evenodd" d="M30.2395 14.831C30.3588 14.831 30.4732 14.7836 30.5576 14.6992C30.642 14.6149 30.6894 14.5005 30.6894 14.3812C30.6894 14.2619 30.642 14.1474 30.5576 14.0631C30.4732 13.9787 30.3588 13.9313 30.2395 13.9313C30.1202 13.9313 30.0058 13.9787 29.9215 14.0631C29.8371 14.1474 29.7897 14.2619 29.7897 14.3812C29.7897 14.5005 29.8371 14.6149 29.9215 14.6992C30.0058 14.7836 30.1202 14.831 30.2395 14.831ZM30.2395 14.9725C30.3192 14.9757 30.3987 14.9628 30.4732 14.9345C30.5477 14.9062 30.6158 14.8632 30.6733 14.808C30.7308 14.7527 30.7765 14.6865 30.8077 14.6131C30.839 14.5398 30.8551 14.4609 30.8551 14.3812C30.8551 14.3014 30.839 14.2225 30.8077 14.1492C30.7765 14.0759 30.7308 14.0096 30.6733 13.9544C30.6158 13.8991 30.5477 13.8561 30.4732 13.8278C30.3987 13.7995 30.3192 13.7866 30.2395 13.7898C30.0868 13.7959 29.9423 13.8609 29.8364 13.9711C29.7305 14.0814 29.6714 14.2283 29.6714 14.3812C29.6714 14.534 29.7305 14.681 29.8364 14.7912C29.9423 14.9014 30.0868 14.9664 30.2395 14.9725Z" fill="#6EBEE0"/>
<path opacity="0.4" d="M32.9138 15.8473C32.9138 16.0544 32.8316 16.253 32.6851 16.3995C32.5387 16.5459 32.3401 16.6282 32.1329 16.6282C31.9258 16.6282 31.7272 16.5459 31.5808 16.3995C31.4343 16.253 31.3521 16.0544 31.3521 15.8473C31.3521 15.6402 31.4343 15.4416 31.5808 15.2951C31.7272 15.1487 31.9258 15.0664 32.1329 15.0664C32.3401 15.0664 32.5387 15.1487 32.6851 15.2951C32.8316 15.4416 32.9138 15.6402 32.9138 15.8473Z" fill="#5D026E"/>
<path opacity="0.4" fill-rule="evenodd" clip-rule="evenodd" d="M32.1331 16.2975C32.2524 16.2975 32.3668 16.2501 32.4512 16.1658C32.5355 16.0814 32.5829 15.967 32.5829 15.8477C32.5829 15.7284 32.5355 15.614 32.4512 15.5296C32.3668 15.4453 32.2524 15.3979 32.1331 15.3979C32.0139 15.3979 31.8996 15.4452 31.8153 15.5295C31.7311 15.6138 31.6837 15.7281 31.6837 15.8472C31.6837 15.9664 31.7311 16.0807 31.8153 16.165C31.8996 16.2492 32.0139 16.2966 32.1331 16.2966V16.2975ZM32.1331 16.4391C32.2127 16.4423 32.2922 16.4293 32.3668 16.4011C32.4413 16.3728 32.5093 16.3297 32.5668 16.2745C32.6243 16.2193 32.67 16.153 32.7013 16.0797C32.7325 16.0063 32.7486 15.9274 32.7486 15.8477C32.7486 15.768 32.7325 15.6891 32.7013 15.6158C32.67 15.5424 32.6243 15.4761 32.5668 15.4209C32.5093 15.3657 32.4413 15.3226 32.3668 15.2944C32.2922 15.2661 32.2127 15.2531 32.1331 15.2563C31.9803 15.2625 31.8359 15.3274 31.73 15.4377C31.6241 15.5479 31.5649 15.6948 31.5649 15.8477C31.5649 16.0006 31.6241 16.1475 31.73 16.2577C31.8359 16.368 31.9803 16.433 32.1331 16.4391Z" fill="#6EBEE0"/>
<path opacity="0.4" d="M32.9138 9.98012C32.9138 10.1872 32.8316 10.3859 32.6851 10.5323C32.5387 10.6787 32.3401 10.761 32.1329 10.761C31.9258 10.761 31.7272 10.6787 31.5808 10.5323C31.4343 10.3859 31.3521 10.1872 31.3521 9.98012C31.3521 9.77301 31.4343 9.57439 31.5808 9.42794C31.7272 9.28149 31.9258 9.19922 32.1329 9.19922C32.3401 9.19922 32.5387 9.28149 32.6851 9.42794C32.8316 9.57439 32.9138 9.77301 32.9138 9.98012Z" fill="#5D026E"/>
<path opacity="0.4" fill-rule="evenodd" clip-rule="evenodd" d="M32.1334 10.4287C32.2525 10.4287 32.3668 10.3813 32.4511 10.297C32.5354 10.2128 32.5827 10.0985 32.5827 9.9793C32.5827 9.86013 32.5354 9.74583 32.4511 9.66156C32.3668 9.57729 32.2525 9.52995 32.1334 9.52995C32.0142 9.52995 31.8999 9.57729 31.8156 9.66156C31.7313 9.74583 31.684 9.86013 31.684 9.9793C31.684 10.0985 31.7313 10.2128 31.8156 10.297C31.8999 10.3813 32.0142 10.4287 32.1334 10.4287ZM32.1334 10.5712C32.2903 10.5712 32.4409 10.5088 32.5519 10.3978C32.6629 10.2868 32.7252 10.1363 32.7252 9.9793C32.7252 9.82233 32.6629 9.67179 32.5519 9.5608C32.4409 9.44981 32.2903 9.38745 32.1334 9.38745C31.9764 9.38745 31.8258 9.44981 31.7149 9.5608C31.6039 9.67179 31.5415 9.82233 31.5415 9.9793C31.5415 10.1363 31.6039 10.2868 31.7149 10.3978C31.8258 10.5088 31.9764 10.5712 32.1334 10.5712Z" fill="#6EBEE0"/>
<path opacity="0.4" d="M31.4939 11.1145C31.4939 11.3216 31.4117 11.5203 31.2652 11.6667C31.1188 11.8131 30.9201 11.8954 30.713 11.8954C30.5059 11.8954 30.3073 11.8131 30.1608 11.6667C30.0144 11.5203 29.9321 11.3216 29.9321 11.1145C29.9321 10.9074 30.0144 10.7088 30.1608 10.5623C30.3073 10.4159 30.5059 10.3336 30.713 10.3336C30.9201 10.3336 31.1188 10.4159 31.2652 10.5623C31.4117 10.7088 31.4939 10.9074 31.4939 11.1145Z" fill="#5D026E"/>
<path opacity="0.4" fill-rule="evenodd" clip-rule="evenodd" d="M30.7132 11.5649C30.8325 11.5649 30.9469 11.5175 31.0312 11.4331C31.1156 11.3488 31.163 11.2344 31.163 11.1151C31.163 10.9958 31.1156 10.8813 31.0312 10.797C30.9469 10.7126 30.8325 10.6652 30.7132 10.6652C30.5939 10.6652 30.4794 10.7126 30.3951 10.797C30.3107 10.8813 30.2633 10.9958 30.2633 11.1151C30.2633 11.2344 30.3107 11.3488 30.3951 11.4331C30.4794 11.5175 30.5939 11.5649 30.7132 11.5649ZM30.7132 11.7074C30.8701 11.7074 31.0207 11.645 31.1317 11.534C31.2427 11.423 31.305 11.2725 31.305 11.1155C31.305 10.9586 31.2427 10.808 31.1317 10.697C31.0207 10.586 30.8701 10.5237 30.7132 10.5237C30.5604 10.5298 30.416 10.5948 30.3101 10.705C30.2042 10.8153 30.145 10.9622 30.145 11.1151C30.145 11.2679 30.2042 11.4149 30.3101 11.5251C30.416 11.6353 30.5604 11.7003 30.7132 11.7064V11.7074Z" fill="#6EBEE0"/>
<path opacity="0.4" d="M32.5828 12.8197C32.5828 13.0268 32.5005 13.2255 32.3541 13.3719C32.2076 13.5183 32.009 13.6006 31.8019 13.6006C31.5948 13.6006 31.3962 13.5183 31.2497 13.3719C31.1033 13.2255 31.021 13.0268 31.021 12.8197C31.021 12.6126 31.1033 12.414 31.2497 12.2675C31.3962 12.1211 31.5948 12.0388 31.8019 12.0388C32.009 12.0388 32.2076 12.1211 32.3541 12.2675C32.5005 12.414 32.5828 12.6126 32.5828 12.8197Z" fill="#5D026E"/>
<path opacity="0.4" fill-rule="evenodd" clip-rule="evenodd" d="M31.803 13.268C31.9222 13.268 32.0365 13.2207 32.1207 13.1364C32.205 13.0521 32.2524 12.9378 32.2524 12.8187C32.2524 12.6995 32.205 12.5852 32.1207 12.5009C32.0365 12.4167 31.9222 12.3693 31.803 12.3693C31.6838 12.3693 31.5695 12.4167 31.4853 12.5009C31.401 12.5852 31.3537 12.6995 31.3537 12.8187C31.3537 12.9378 31.401 13.0521 31.4853 13.1364C31.5695 13.2207 31.6838 13.268 31.803 13.268ZM31.803 13.4105C31.8827 13.4137 31.9621 13.4008 32.0367 13.3725C32.1112 13.3442 32.1793 13.3012 32.2367 13.2459C32.2942 13.1907 32.34 13.1244 32.3712 13.0511C32.4025 12.9778 32.4186 12.8989 32.4186 12.8191C32.4186 12.7394 32.4025 12.6605 32.3712 12.5872C32.34 12.5138 32.2942 12.4476 32.2367 12.3923C32.1793 12.3371 32.1112 12.2941 32.0367 12.2658C31.9621 12.2375 31.8827 12.2246 31.803 12.2278C31.6503 12.2339 31.5058 12.2989 31.3999 12.4091C31.294 12.5193 31.2349 12.6663 31.2349 12.8191C31.2349 12.972 31.294 13.1189 31.3999 13.2292C31.5058 13.3394 31.6503 13.4044 31.803 13.4105Z" fill="#6EBEE0"/>
<path opacity="0.4" fill-rule="evenodd" clip-rule="evenodd" d="M26.998 6.97534H28.1323L28.7242 7.56719H29.6238V8.13529H28.4886L27.8967 7.54344H27.2336L25.9321 8.84494H23.9447V8.27684H25.6965L26.998 6.97534ZM26.6427 9.17649H29.0006L29.5687 9.69709H31.4687V10.2642H29.3474L28.7793 9.74364H26.8783L25.3165 11.3054H22.4304V10.7373H25.0809L26.6427 9.17649ZM26.998 10.7848H30.0969V11.3529H27.2327L25.9312 12.6544H20.7983V12.0863H25.6965L26.998 10.7848ZM27.8967 12.5357H31.1619V13.1038H28.1314L26.8774 14.3578H25.0819L24.49 13.7669H20.7983V13.1988H24.7247L25.3165 13.7897H26.6427L27.8967 12.5357ZM27.8967 14.1222H29.6238V14.6893H28.1323L26.8783 15.9433H23.3766V15.3752H26.6427L27.8967 14.1212V14.1222ZM29.0557 15.5643H31.5162V16.1324H29.2913L28.8904 16.5342V17.2439L27.5414 18.5929H26.2874L25.3887 17.6942H23.9447V17.1261H25.6243L26.523 18.0257H27.3058L28.3223 17.0092V16.2986L29.0567 15.5643H29.0557Z" fill="#5D026E"/>
<path opacity="0.4" fill-rule="evenodd" clip-rule="evenodd" d="M27.0854 7.18811H28.0449L28.6358 7.77996H29.7188V7.92246H28.5769L27.9851 7.32966H27.1453L25.8438 8.63116H23.9447V8.48866H25.7849L27.0854 7.18811ZM26.7311 9.38831H28.918L29.4861 9.90891H31.5637V10.0514H29.43L28.8629 9.53081H26.79L25.2282 11.0926H22.4304V10.9501H25.1693L26.7311 9.38831ZM27.0864 10.9976H30.191V11.1401H27.1453L25.8438 12.4416H20.7983V12.2991H25.7849L27.0864 10.9976ZM27.9851 12.7485H31.2559V12.891H28.0449L26.7909 14.145H25.1693L24.5784 13.5531H20.7974V13.4106H24.6373L25.2282 14.0025H26.7311L27.9851 12.7485ZM27.9851 14.334H29.6713V14.4765H28.044L26.79 15.7305H23.3766V15.588H26.7311L27.9851 14.334ZM29.1441 15.778H31.5637V15.9196H29.2039L28.6786 16.4449V17.1555L27.4531 18.3801H26.3767L25.478 17.4804H23.9457V17.3379H25.5369L26.4366 18.2376H27.3951L28.5361 17.0966V16.387L29.146 15.7771L29.1441 15.778Z" fill="#6EBEE0"/>
<path opacity="0.4" d="M14.3751 4.89282C14.5822 4.89282 14.7809 4.9751 14.9273 5.12154C15.0738 5.26799 15.156 5.46661 15.156 5.67372C15.156 5.88083 15.0738 6.07946 14.9273 6.2259C14.7809 6.37235 14.5822 6.45462 14.3751 6.45462C14.168 6.45462 13.9694 6.37235 13.823 6.2259C13.6765 6.07946 13.5942 5.88083 13.5942 5.67372C13.5942 5.46661 13.6765 5.26799 13.823 5.12154C13.9694 4.9751 14.168 4.89282 14.3751 4.89282Z" fill="#5D026E"/>
<path opacity="0.4" fill-rule="evenodd" clip-rule="evenodd" d="M14.8239 5.67388C14.8239 5.55458 14.7765 5.44017 14.6922 5.35581C14.6078 5.27145 14.4934 5.22406 14.3741 5.22406C14.2548 5.22406 14.1404 5.27145 14.056 5.35581C13.9717 5.44017 13.9243 5.55458 13.9243 5.67388C13.9243 5.79318 13.9717 5.9076 14.056 5.99196C14.1404 6.07631 14.2548 6.12371 14.3741 6.12371C14.4934 6.12371 14.6078 6.07631 14.6922 5.99196C14.7765 5.9076 14.8239 5.79318 14.8239 5.67388ZM14.9664 5.67388C14.9664 5.51691 14.9041 5.36637 14.7931 5.25538C14.6821 5.14439 14.5315 5.08203 14.3746 5.08203C14.2176 5.08203 14.0671 5.14439 13.9561 5.25538C13.8451 5.36637 13.7827 5.51691 13.7827 5.67388C13.7888 5.82662 13.8538 5.97107 13.9641 6.07697C14.0743 6.18288 14.2212 6.24202 14.3741 6.24202C14.527 6.24202 14.6739 6.18288 14.7841 6.07697C14.8944 5.97107 14.9593 5.82662 14.9655 5.67388H14.9664Z" fill="#6EBEE0"/>
<path opacity="0.4" d="M10.9797 5.27098C11.0845 5.26733 11.189 5.28481 11.2868 5.32238C11.3847 5.35995 11.474 5.41685 11.5494 5.48968C11.6249 5.56251 11.6848 5.64978 11.7258 5.74629C11.7668 5.8428 11.7879 5.94657 11.7879 6.05141C11.7879 6.15625 11.7668 6.26002 11.7258 6.35652C11.6848 6.45303 11.6249 6.5403 11.5494 6.61313C11.474 6.68596 11.3847 6.74286 11.2868 6.78044C11.189 6.81801 11.0845 6.83549 10.9797 6.83183C10.7775 6.82477 10.5858 6.73946 10.4452 6.59387C10.3047 6.44829 10.2261 6.2538 10.2261 6.05141C10.2261 5.84902 10.3047 5.65453 10.4452 5.50894C10.5858 5.36335 10.7775 5.27804 10.9797 5.27098Z" fill="#5D026E"/>
<path opacity="0.4" fill-rule="evenodd" clip-rule="evenodd" d="M11.4299 6.05184C11.4299 5.93266 11.3825 5.81837 11.2983 5.7341C11.214 5.64983 11.0997 5.60249 10.9805 5.60249C10.8614 5.60249 10.7471 5.64983 10.6628 5.7341C10.5785 5.81837 10.5312 5.93266 10.5312 6.05184C10.5312 6.17114 10.5786 6.28555 10.6629 6.36991C10.7473 6.45427 10.8617 6.50166 10.981 6.50166C11.1003 6.50166 11.2147 6.45427 11.2991 6.36991C11.3834 6.28555 11.4308 6.17114 11.4308 6.05184H11.4299ZM11.5724 6.05184C11.5756 5.97218 11.5626 5.8927 11.5344 5.81817C11.5061 5.74364 11.463 5.67558 11.4078 5.6181C11.3526 5.56061 11.2863 5.51487 11.213 5.48363C11.1396 5.45238 11.0607 5.43628 10.981 5.43628C10.9013 5.43628 10.8224 5.45238 10.7491 5.48363C10.6757 5.51487 10.6094 5.56061 10.5542 5.6181C10.499 5.67558 10.4559 5.74364 10.4277 5.81817C10.3994 5.8927 10.3864 5.97218 10.3896 6.05184C10.3958 6.20458 10.4607 6.34903 10.571 6.45493C10.6812 6.56083 10.8281 6.61998 10.981 6.61998C11.1339 6.61998 11.2808 6.56083 11.391 6.45493C11.5013 6.34903 11.5663 6.20458 11.5724 6.05184Z" fill="#6EBEE0"/>
<path opacity="0.4" d="M9.60805 7.02173C9.81516 7.02173 10.0138 7.104 10.1602 7.25045C10.3067 7.3969 10.3889 7.59552 10.3889 7.80263C10.3889 8.00974 10.3067 8.20836 10.1602 8.35481C10.0138 8.50126 9.81516 8.58353 9.60805 8.58353C9.40094 8.58353 9.20232 8.50126 9.05587 8.35481C8.90942 8.20836 8.82715 8.00974 8.82715 7.80263C8.82715 7.59552 8.90942 7.3969 9.05587 7.25045C9.20232 7.104 9.40094 7.02173 9.60805 7.02173Z" fill="#5D026E"/>
<path opacity="0.4" fill-rule="evenodd" clip-rule="evenodd" d="M10.0563 7.80376C10.0563 7.68459 10.009 7.5703 9.92472 7.48603C9.84046 7.40176 9.72616 7.35441 9.60699 7.35441C9.48781 7.35441 9.37352 7.40176 9.28925 7.48603C9.20498 7.5703 9.15764 7.68459 9.15764 7.80376C9.15764 7.92294 9.20498 8.03723 9.28925 8.1215C9.37352 8.20577 9.48781 8.25311 9.60699 8.25311C9.72616 8.25311 9.84046 8.20577 9.92472 8.1215C10.009 8.03723 10.0563 7.92294 10.0563 7.80376ZM10.1988 7.80376C10.1988 7.6468 10.1365 7.49626 10.0255 7.38526C9.91449 7.27427 9.76396 7.21191 9.60699 7.21191C9.45002 7.21191 9.29948 7.27427 9.18849 7.38526C9.07749 7.49626 9.01514 7.6468 9.01514 7.80376C9.01514 7.96073 9.07749 8.11127 9.18849 8.22227C9.29948 8.33326 9.45002 8.39561 9.60699 8.39561C9.76396 8.39561 9.91449 8.33326 10.0255 8.22227C10.1365 8.11127 10.1988 7.96073 10.1988 7.80376Z" fill="#6EBEE0"/>
<path opacity="0.4" d="M13.5823 34.4701C13.6871 34.4664 13.7915 34.4839 13.8894 34.5215C13.9873 34.5591 14.0766 34.616 14.152 34.6888C14.2274 34.7616 14.2874 34.8489 14.3283 34.9454C14.3693 35.0419 14.3904 35.1457 14.3904 35.2505C14.3904 35.3553 14.3693 35.4591 14.3283 35.5556C14.2874 35.6521 14.2274 35.7394 14.152 35.8122C14.0766 35.8851 13.9873 35.942 13.8894 35.9795C13.7915 36.0171 13.6871 36.0346 13.5823 36.0309C13.38 36.0239 13.1884 35.9386 13.0478 35.793C12.9072 35.6474 12.8286 35.4529 12.8286 35.2505C12.8286 35.0481 12.9072 34.8536 13.0478 34.708C13.1884 34.5625 13.38 34.4771 13.5823 34.4701Z" fill="#5D026E"/>
<path opacity="0.4" fill-rule="evenodd" clip-rule="evenodd" d="M14.0329 35.2502C14.0329 35.1912 14.0213 35.1327 13.9987 35.0782C13.9761 35.0237 13.943 34.9742 13.9013 34.9324C13.8596 34.8907 13.81 34.8576 13.7555 34.835C13.701 34.8124 13.6426 34.8008 13.5835 34.8008C13.5245 34.8008 13.4661 34.8124 13.4116 34.835C13.3571 34.8576 13.3075 34.8907 13.2658 34.9324C13.2241 34.9742 13.191 35.0237 13.1684 35.0782C13.1458 35.1327 13.1342 35.1912 13.1342 35.2502C13.1342 35.3694 13.1815 35.4836 13.2658 35.5679C13.3501 35.6522 13.4644 35.6995 13.5835 35.6995C13.7027 35.6995 13.817 35.6522 13.9013 35.5679C13.9856 35.4836 14.0329 35.3694 14.0329 35.2502ZM14.1754 35.2502C14.1754 35.0932 14.113 34.9427 14.0021 34.8317C13.8911 34.7207 13.7405 34.6583 13.5835 34.6583C13.4266 34.6583 13.276 34.7207 13.165 34.8317C13.0541 34.9427 12.9917 35.0932 12.9917 35.2502C12.9978 35.4029 13.0628 35.5474 13.173 35.6533C13.2833 35.7592 13.4302 35.8183 13.5831 35.8183C13.7359 35.8183 13.8829 35.7592 13.9931 35.6533C14.1033 35.5474 14.1683 35.4029 14.1744 35.2502H14.1754Z" fill="#6EBEE0"/>
<path opacity="0.4" d="M24.9406 3.28271C25.0432 3.28271 25.1448 3.30293 25.2396 3.34219C25.3344 3.38146 25.4205 3.43902 25.4931 3.51157C25.5656 3.58413 25.6232 3.67027 25.6625 3.76507C25.7017 3.85987 25.7219 3.96148 25.7219 4.06409C25.7219 4.1667 25.7017 4.26831 25.6625 4.36311C25.6232 4.45791 25.5656 4.54405 25.4931 4.61661C25.4205 4.68916 25.3344 4.74672 25.2396 4.78599C25.1448 4.82525 25.0432 4.84546 24.9406 4.84546C24.7335 4.84546 24.5348 4.76319 24.3884 4.61674C24.2419 4.4703 24.1597 4.27167 24.1597 4.06456C24.1597 3.85746 24.2419 3.65883 24.3884 3.51239C24.5348 3.36594 24.7335 3.28367 24.9406 3.28367V3.28271Z" fill="#5D026E"/>
<path opacity="0.4" fill-rule="evenodd" clip-rule="evenodd" d="M25.3903 4.06463C25.3903 3.94545 25.343 3.83116 25.2587 3.74689C25.1744 3.66262 25.0601 3.61528 24.941 3.61528C24.8218 3.61528 24.7075 3.66262 24.6232 3.74689C24.539 3.83116 24.4916 3.94545 24.4916 4.06463C24.4916 4.1838 24.539 4.2981 24.6232 4.38237C24.7075 4.46664 24.8218 4.51398 24.941 4.51398C25.0601 4.51398 25.1744 4.46664 25.2587 4.38237C25.343 4.2981 25.3903 4.1838 25.3903 4.06463ZM25.5328 4.06463C25.5328 3.98691 25.5175 3.90994 25.4878 3.83814C25.458 3.76633 25.4144 3.70109 25.3595 3.64613C25.3045 3.59117 25.2393 3.54757 25.1675 3.51783C25.0957 3.48809 25.0187 3.47278 24.941 3.47278C24.8632 3.47278 24.7863 3.48809 24.7145 3.51783C24.6427 3.54757 24.5774 3.59117 24.5225 3.64613C24.4675 3.70109 24.4239 3.76633 24.3942 3.83814C24.3644 3.90994 24.3491 3.98691 24.3491 4.06463C24.3552 4.21737 24.4202 4.36182 24.5305 4.46772C24.6407 4.57363 24.7876 4.63277 24.9405 4.63277C25.0934 4.63277 25.2403 4.57363 25.3505 4.46772C25.4608 4.36182 25.5267 4.21737 25.5328 4.06463Z" fill="#6EBEE0"/>
<path opacity="0.4" d="M20.8585 4.89282C21.0656 4.89282 21.2643 4.9751 21.4107 5.12154C21.5572 5.26799 21.6394 5.46661 21.6394 5.67372C21.6394 5.88083 21.5572 6.07946 21.4107 6.2259C21.2643 6.37235 21.0656 6.45462 20.8585 6.45462C20.6514 6.45462 20.4528 6.37235 20.3064 6.2259C20.1599 6.07946 20.0776 5.88083 20.0776 5.67372C20.0776 5.46661 20.1599 5.26799 20.3064 5.12154C20.4528 4.9751 20.6514 4.89282 20.8585 4.89282Z" fill="#5D026E"/>
<path opacity="0.4" fill-rule="evenodd" clip-rule="evenodd" d="M21.3083 5.67388C21.3083 5.55471 21.2609 5.44041 21.1767 5.35614C21.0924 5.27187 20.9781 5.22453 20.8589 5.22453C20.7398 5.22453 20.6255 5.27187 20.5412 5.35614C20.4569 5.44041 20.4096 5.55471 20.4096 5.67388C20.4096 5.79306 20.4569 5.90735 20.5412 5.99162C20.6255 6.07589 20.7398 6.12323 20.8589 6.12323C20.9781 6.12323 21.0924 6.07589 21.1767 5.99162C21.2609 5.90735 21.3083 5.79306 21.3083 5.67388ZM21.4508 5.67388C21.4508 5.59616 21.4355 5.5192 21.4057 5.44739C21.376 5.37558 21.3324 5.31034 21.2774 5.25538C21.2225 5.20042 21.1572 5.15683 21.0854 5.12708C21.0136 5.09734 20.9367 5.08203 20.8589 5.08203C20.7812 5.08203 20.7043 5.09734 20.6324 5.12708C20.5606 5.15683 20.4954 5.20042 20.4404 5.25538C20.3855 5.31034 20.3419 5.37558 20.3121 5.44739C20.2824 5.5192 20.2671 5.59616 20.2671 5.67388C20.2671 5.83085 20.3294 5.98139 20.4404 6.09238C20.5514 6.20338 20.702 6.26573 20.8589 6.26573C21.0159 6.26573 21.1664 6.20338 21.2774 6.09238C21.3884 5.98139 21.4508 5.83085 21.4508 5.67388Z" fill="#6EBEE0"/>
<path opacity="0.4" d="M22.3245 3.00048C22.4292 2.99682 22.5337 3.0143 22.6316 3.05187C22.7294 3.08945 22.8188 3.14634 22.8942 3.21917C22.9696 3.292 23.0296 3.37928 23.0705 3.47578C23.1115 3.57229 23.1326 3.67606 23.1326 3.7809C23.1326 3.88574 23.1115 3.98951 23.0705 4.08602C23.0296 4.18252 22.9696 4.2698 22.8942 4.34263C22.8188 4.41546 22.7294 4.47235 22.6316 4.50993C22.5337 4.5475 22.4292 4.56498 22.3245 4.56133C22.1222 4.55427 21.9306 4.46895 21.79 4.32337C21.6494 4.17778 21.5708 3.98329 21.5708 3.7809C21.5708 3.57851 21.6494 3.38402 21.79 3.23843C21.9306 3.09285 22.1222 3.00753 22.3245 3.00048Z" fill="#5D026E"/>
<path opacity="0.4" fill-rule="evenodd" clip-rule="evenodd" d="M22.7741 3.78045C22.7741 3.66127 22.7268 3.54698 22.6425 3.46271C22.5582 3.37844 22.4439 3.3311 22.3248 3.3311C22.2056 3.3311 22.0913 3.37844 22.007 3.46271C21.9228 3.54698 21.8754 3.66127 21.8754 3.78045C21.8754 3.89962 21.9228 4.01392 22.007 4.09819C22.0913 4.18246 22.2056 4.2298 22.3248 4.2298C22.4439 4.2298 22.5582 4.18246 22.6425 4.09819C22.7268 4.01392 22.7741 3.89962 22.7741 3.78045ZM22.9166 3.78045C22.9166 3.62348 22.8543 3.47294 22.7433 3.36195C22.6323 3.25095 22.4817 3.1886 22.3248 3.1886C22.1678 3.1886 22.0173 3.25095 21.9063 3.36195C21.7953 3.47294 21.7329 3.62348 21.7329 3.78045C21.7329 3.93742 21.7953 4.08796 21.9063 4.19895C22.0173 4.30994 22.1678 4.3723 22.3248 4.3723C22.4817 4.3723 22.6323 4.30994 22.7433 4.19895C22.8543 4.08796 22.9166 3.93742 22.9166 3.78045Z" fill="#6EBEE0"/>
<path opacity="0.4" d="M16.4563 3.00048C16.5611 2.99682 16.6655 3.0143 16.7634 3.05187C16.8613 3.08945 16.9506 3.14634 17.026 3.21917C17.1014 3.292 17.1614 3.37928 17.2024 3.47578C17.2433 3.57229 17.2644 3.67606 17.2644 3.7809C17.2644 3.88574 17.2433 3.98951 17.2024 4.08602C17.1614 4.18252 17.1014 4.2698 17.026 4.34263C16.9506 4.41546 16.8613 4.47235 16.7634 4.50993C16.6655 4.5475 16.5611 4.56498 16.4563 4.56133C16.254 4.55427 16.0624 4.46895 15.9218 4.32337C15.7812 4.17778 15.7026 3.98329 15.7026 3.7809C15.7026 3.57851 15.7812 3.38402 15.9218 3.23843C16.0624 3.09285 16.254 3.00753 16.4563 3.00048Z" fill="#5D026E"/>
<path opacity="0.4" fill-rule="evenodd" clip-rule="evenodd" d="M16.9079 3.78045C16.9079 3.66115 16.8605 3.54673 16.7761 3.46237C16.6918 3.37802 16.5774 3.33062 16.4581 3.33062C16.3388 3.33062 16.2244 3.37802 16.14 3.46237C16.0556 3.54673 16.0082 3.66115 16.0082 3.78045C16.0082 3.89975 16.0556 4.01416 16.14 4.09852C16.2244 4.18288 16.3388 4.23027 16.4581 4.23027C16.5774 4.23027 16.6918 4.18288 16.7761 4.09852C16.8605 4.01416 16.9079 3.89975 16.9079 3.78045ZM17.0504 3.78045C17.0504 3.62348 16.988 3.47294 16.877 3.36195C16.7661 3.25095 16.6155 3.1886 16.4585 3.1886C16.3016 3.1886 16.151 3.25095 16.04 3.36195C15.9291 3.47294 15.8667 3.62348 15.8667 3.78045C15.8728 3.93319 15.9378 4.07764 16.048 4.18354C16.1583 4.28945 16.3052 4.34859 16.4581 4.34859C16.6109 4.34859 16.7579 4.28945 16.8681 4.18354C16.9783 4.07764 17.0443 3.93319 17.0504 3.78045Z" fill="#6EBEE0"/>
<path opacity="0.4" d="M17.5929 4.41968C17.8 4.41968 17.9986 4.50195 18.1451 4.6484C18.2915 4.79485 18.3738 4.99347 18.3738 5.20058C18.3738 5.40769 18.2915 5.60631 18.1451 5.75276C17.9986 5.8992 17.8 5.98148 17.5929 5.98148C17.3858 5.98148 17.1872 5.8992 17.0407 5.75276C16.8943 5.60631 16.812 5.40769 16.812 5.20058C16.812 4.99347 16.8943 4.79485 17.0407 4.6484C17.1872 4.50195 17.3858 4.41968 17.5929 4.41968Z" fill="#5D026E"/>
<path opacity="0.4" fill-rule="evenodd" clip-rule="evenodd" d="M18.0422 5.19979C18.0422 5.08061 17.9948 4.96632 17.9106 4.88205C17.8263 4.79778 17.712 4.75044 17.5928 4.75044C17.4737 4.75044 17.3594 4.79778 17.2751 4.88205C17.1908 4.96632 17.1435 5.08061 17.1435 5.19979C17.1435 5.31909 17.1909 5.4335 17.2752 5.51786C17.3596 5.60222 17.474 5.64961 17.5933 5.64961C17.7126 5.64961 17.827 5.60222 17.9114 5.51786C17.9957 5.4335 18.0422 5.31909 18.0422 5.19979ZM18.1847 5.19979C18.1879 5.12013 18.175 5.04065 18.1467 4.96612C18.1184 4.89158 18.0753 4.82353 18.0201 4.76604C17.9649 4.70856 17.8986 4.66282 17.8253 4.63158C17.7519 4.60033 17.673 4.58423 17.5933 4.58423C17.5136 4.58423 17.4347 4.60033 17.3614 4.63158C17.288 4.66282 17.2217 4.70856 17.1665 4.76604C17.1113 4.82353 17.0682 4.89158 17.04 4.96612C17.0117 5.04065 16.9987 5.12013 17.0019 5.19979C17.0081 5.35253 17.073 5.49698 17.1833 5.60288C17.2935 5.70878 17.4405 5.76793 17.5933 5.76793C17.7462 5.76793 17.8931 5.70878 18.0033 5.60288C18.1136 5.49698 18.1786 5.35253 18.1847 5.19979Z" fill="#6EBEE0"/>
<path opacity="0.4" d="M19.2971 3.33202C19.4019 3.32836 19.5063 3.34584 19.6042 3.38342C19.7021 3.42099 19.7914 3.47789 19.8668 3.55072C19.9422 3.62355 20.0022 3.71082 20.0432 3.80733C20.0841 3.90383 20.1053 4.0076 20.1053 4.11244C20.1053 4.21728 20.0841 4.32105 20.0432 4.41756C20.0022 4.51407 19.9422 4.60134 19.8668 4.67417C19.7914 4.747 19.7021 4.8039 19.6042 4.84147C19.5063 4.87904 19.4019 4.89652 19.2971 4.89287C19.0949 4.88581 18.9032 4.8005 18.7626 4.65491C18.622 4.50932 18.5435 4.31484 18.5435 4.11244C18.5435 3.91005 18.622 3.71556 18.7626 3.56998C18.9032 3.42439 19.0949 3.33908 19.2971 3.33202Z" fill="#5D026E"/>
<path opacity="0.4" fill-rule="evenodd" clip-rule="evenodd" d="M19.7458 4.11187C19.7458 3.99269 19.6984 3.8784 19.6142 3.79413C19.5299 3.70986 19.4156 3.66252 19.2964 3.66252C19.1773 3.66252 19.063 3.70986 18.9787 3.79413C18.8944 3.8784 18.8471 3.99269 18.8471 4.11187C18.8471 4.23104 18.8944 4.34534 18.9787 4.42961C19.063 4.51388 19.1773 4.56122 19.2964 4.56122C19.4156 4.56122 19.5299 4.51388 19.6142 4.42961C19.6984 4.34534 19.7458 4.23104 19.7458 4.11187ZM19.8883 4.11187C19.8883 3.9549 19.8259 3.80436 19.7149 3.69337C19.6039 3.58237 19.4534 3.52002 19.2964 3.52002C19.1395 3.52002 18.9889 3.58237 18.8779 3.69337C18.7669 3.80436 18.7046 3.9549 18.7046 4.11187C18.7046 4.26884 18.7669 4.41938 18.8779 4.53037C18.9889 4.64136 19.1395 4.70372 19.2964 4.70372C19.4534 4.70372 19.6039 4.64136 19.7149 4.53037C19.8259 4.41938 19.8883 4.26884 19.8883 4.11187Z" fill="#6EBEE0"/>
<path opacity="0.4" fill-rule="evenodd" clip-rule="evenodd" d="M13.4526 8.91505V7.78075L14.0445 7.1889V6.28925H14.6116V7.4245L14.0207 8.0154V8.6804L15.3222 9.9819V11.9674H14.7541V10.2175L13.4526 8.916V8.91505ZM15.6528 9.2694V6.91245L16.1734 6.34435V4.44435H16.7415V6.5657L16.2209 7.13285V9.03475L17.7827 10.5966V13.4817H17.2146V10.8312L15.6528 9.2694ZM17.2631 8.916V5.81615H17.8312V8.6785L19.0491 9.89735L18.6472 10.2983L17.2631 8.916ZM19.0139 8.01635V4.7512H19.582V7.78075L20.836 9.03475V10.8312L20.1615 11.5057L19.7597 11.1048L20.2679 10.5966V9.2694L19.0139 8.01635ZM20.5995 8.01635V6.28925H21.1676V7.78075L22.4216 9.03475V12.5355H21.8535V9.2694L20.5995 8.01635ZM22.0425 6.85735V4.39685H22.6106V6.62175L23.0125 7.0236H23.7221L25.0711 8.3726V9.62565L24.1724 10.5253V11.9693H23.6043V10.2878L24.503 9.38815V8.6063L23.4865 7.5898H22.7769L22.0425 6.85545V6.85735Z" fill="#5D026E"/>
<path opacity="0.4" fill-rule="evenodd" clip-rule="evenodd" d="M13.6645 8.82693V7.86933L14.2554 7.27748V6.19448H14.3979V7.33638L13.8061 7.92823V8.76803L15.1076 10.0695V11.9676H14.9651V10.1284L13.6636 8.82693H13.6645ZM15.8647 9.18223V6.99533L16.3853 6.42723V4.34958H16.5278V6.48233L16.0063 7.05043V9.12333L17.5681 10.6851V13.4819H17.4256V10.7431L15.8657 9.18223H15.8647ZM17.474 8.82693V5.72138H17.6156V8.76803L18.8962 10.0486L18.7955 10.1493L17.474 8.82693ZM19.2249 7.92823V4.65643H19.3674V7.86933L20.6214 9.12333V10.7431L20.0086 11.3558L19.9079 11.2551L20.4779 10.6851V9.18223L19.2249 7.92823ZM20.8104 7.92823V6.24198H20.952V7.86933L22.206 9.12333V12.5357H22.0635V9.18223L20.8095 7.92823H20.8104ZM22.2535 6.76923V4.34863H22.396V6.70843L22.9213 7.23473H23.631L24.8565 8.46023V9.53563L23.9568 10.4353V11.9676H23.8143V10.3764L24.714 9.47673V8.51913L23.5721 7.37818H22.8624L22.2535 6.76828V6.76923Z" fill="#6EBEE0"/>
<path opacity="0.4" fill-rule="evenodd" clip-rule="evenodd" d="M25.6067 4.24866L26.5728 5.21386V6.18001L25.5316 7.22121V8.25101H24.916V6.96566L25.9572 5.92446V5.46846L25.1716 4.68376L25.6067 4.24866ZM12.3665 6.36051H11.5951V5.74301H12.6211L13.3697 6.49066V8.25101H12.7541V6.74716L12.3665 6.36051ZM11.1068 8.84381L10.2984 8.03441L9.86328 8.46951L10.8522 9.45846H12.2012L12.7541 10.0123V10.8787H13.3697V9.75771L12.4558 8.84381H11.1068ZM13.4163 30.5171H14.0319V32.1644L15.1681 33.3006V34.0511L14.2257 34.9935L13.7906 34.5584L14.5525 33.7975V33.5552L13.4163 32.419V30.5171ZM26.4066 31.1327H27.0222V32.1644L27.4573 32.5995H28.4263L28.659 32.8313L28.2999 33.1914V33.2142H28.2762L28.2239 33.2664L28.1726 33.2142H27.2017L26.4066 32.419V31.1327Z" fill="#5D026E"/>
<path opacity="0.4" fill-rule="evenodd" clip-rule="evenodd" d="M25.3933 4.36938L26.3367 5.31274V6.08224L25.2955 7.12248V8.25299H25.153V7.06359L26.1942 6.02238V5.37258L25.2917 4.47008L25.3933 4.36938ZM12.4648 6.12308H11.5471V5.98058H12.5227L13.1326 6.59048V8.25299H12.9901V6.64938L12.4648 6.12308ZM11.0084 9.08043L10.0831 8.15513L9.98242 8.25583L10.9505 9.22294H12.2995L12.9911 9.91453V10.8788H13.1326V9.85659L12.3574 9.08139H11.0084V9.08043ZM13.6532 30.5181H13.7957V32.2633L14.931 33.3995V33.9543L14.0104 34.8748L13.9107 34.7741L14.7894 33.8954V33.4584L13.6532 32.3222V30.5172V30.5181ZM26.6435 31.1328H26.786V32.2633L27.3589 32.8371H28.3288L28.5863 33.0936L28.4856 33.1943L28.2699 32.9786H27.3009L26.6435 32.3222V31.1328Z" fill="#6EBEE0"/>
<path opacity="0.4" d="M24.6788 34.5406C24.4717 34.5406 24.2731 34.4583 24.1267 34.3118C23.9802 34.1654 23.8979 33.9668 23.8979 33.7597C23.8979 33.5526 23.9802 33.3539 24.1267 33.2075C24.2731 33.061 24.4717 32.9788 24.6788 32.9788C24.886 32.9788 25.0846 33.061 25.231 33.2075C25.3775 33.3539 25.4597 33.5526 25.4597 33.7597C25.4597 33.9668 25.3775 34.1654 25.231 34.3118C25.0846 34.4583 24.886 34.5406 24.6788 34.5406Z" fill="#5D026E"/>
<path opacity="0.4" fill-rule="evenodd" clip-rule="evenodd" d="M24.2304 33.7597C24.2304 33.879 24.2778 33.9934 24.3622 34.0777C24.4465 34.1621 24.5609 34.2095 24.6802 34.2095C24.7995 34.2095 24.9139 34.1621 24.9983 34.0777C25.0827 33.9934 25.1301 33.879 25.1301 33.7597C25.1301 33.6404 25.0827 33.526 24.9983 33.4416C24.9139 33.3572 24.7995 33.3098 24.6802 33.3098C24.5609 33.3098 24.4465 33.3572 24.3622 33.4416C24.2778 33.526 24.2304 33.6404 24.2304 33.7597ZM24.0889 33.7597C24.0857 33.8393 24.0986 33.9188 24.1269 33.9933C24.1552 34.0679 24.1982 34.1359 24.2534 34.1934C24.3087 34.2509 24.3749 34.2966 24.4483 34.3279C24.5216 34.3591 24.6005 34.3752 24.6802 34.3752C24.7599 34.3752 24.8388 34.3591 24.9122 34.3279C24.9855 34.2966 25.0518 34.2509 25.107 34.1934C25.1623 34.1359 25.2053 34.0679 25.2336 33.9933C25.2619 33.9188 25.2748 33.8393 25.2716 33.7597C25.2655 33.6069 25.2005 33.4625 25.0903 33.3566C24.98 33.2507 24.8331 33.1915 24.6802 33.1915C24.5274 33.1915 24.3804 33.2507 24.2702 33.3566C24.16 33.4625 24.095 33.6069 24.0889 33.7597Z" fill="#6EBEE0"/>
<path opacity="0.4" d="M18.1953 34.5406C18.0906 34.5442 17.9861 34.5267 17.8882 34.4892C17.7904 34.4516 17.7011 34.3947 17.6256 34.3219C17.5502 34.249 17.4902 34.1618 17.4493 34.0653C17.4083 33.9688 17.3872 33.865 17.3872 33.7602C17.3872 33.6553 17.4083 33.5515 17.4493 33.455C17.4902 33.3585 17.5502 33.2713 17.6256 33.1984C17.7011 33.1256 17.7904 33.0687 17.8882 33.0311C17.9861 32.9935 18.0906 32.9761 18.1953 32.9797C18.3976 32.9868 18.5892 33.0721 18.7298 33.2177C18.8704 33.3633 18.949 33.5578 18.949 33.7602C18.949 33.9625 18.8704 34.157 18.7298 34.3026C18.5892 34.4482 18.3976 34.5335 18.1953 34.5406Z" fill="#5D026E"/>
<path opacity="0.4" fill-rule="evenodd" clip-rule="evenodd" d="M17.747 33.7597C17.747 33.8788 17.7943 33.9931 17.8786 34.0774C17.9629 34.1617 18.0772 34.209 18.1963 34.209C18.3155 34.209 18.4298 34.1617 18.5141 34.0774C18.5983 33.9931 18.6457 33.8788 18.6457 33.7597C18.6457 33.6404 18.5983 33.526 18.5139 33.4416C18.4296 33.3572 18.3152 33.3098 18.1959 33.3098C18.0766 33.3098 17.9621 33.3572 17.8778 33.4416C17.7934 33.526 17.747 33.6404 17.747 33.7597ZM17.6045 33.7597C17.6013 33.8393 17.6142 33.9188 17.6425 33.9933C17.6708 34.0679 17.7138 34.1359 17.7691 34.1934C17.8243 34.2509 17.8906 34.2966 17.9639 34.3279C18.0372 34.3591 18.1161 34.3752 18.1959 34.3752C18.2756 34.3752 18.3545 34.3591 18.4278 34.3279C18.5012 34.2966 18.5674 34.2509 18.6227 34.1934C18.6779 34.1359 18.7209 34.0679 18.7492 33.9933C18.7775 33.9188 18.7904 33.8393 18.7872 33.7597C18.7811 33.6069 18.7161 33.4625 18.6059 33.3566C18.4957 33.2507 18.3487 33.1915 18.1959 33.1915C18.043 33.1915 17.8961 33.2507 17.7858 33.3566C17.6756 33.4625 17.6106 33.6069 17.6045 33.7597Z" fill="#6EBEE0"/>
<path opacity="0.4" d="M16.7306 36.434C16.5235 36.434 16.3249 36.3517 16.1784 36.2053C16.032 36.0588 15.9497 35.8602 15.9497 35.6531C15.9497 35.446 16.032 35.2474 16.1784 35.1009C16.3249 34.9545 16.5235 34.8722 16.7306 34.8722C16.9377 34.8722 17.1363 34.9545 17.2828 35.1009C17.4292 35.2474 17.5115 35.446 17.5115 35.6531C17.5115 35.8602 17.4292 36.0588 17.2828 36.2053C17.1363 36.3517 16.9377 36.434 16.7306 36.434Z" fill="#5D026E"/>
<path opacity="0.4" fill-rule="evenodd" clip-rule="evenodd" d="M16.2807 35.653C16.2807 35.7723 16.3281 35.8867 16.4124 35.9711C16.4968 36.0554 16.6112 36.1028 16.7305 36.1028C16.8498 36.1028 16.9642 36.0554 17.0486 35.9711C17.1329 35.8867 17.1803 35.7723 17.1803 35.653C17.1803 35.5337 17.1329 35.4193 17.0486 35.3349C16.9642 35.2505 16.8498 35.2032 16.7305 35.2032C16.6112 35.2032 16.4968 35.2505 16.4124 35.3349C16.3281 35.4193 16.2807 35.5337 16.2807 35.653ZM16.1382 35.653C16.1382 35.7307 16.1535 35.8077 16.1832 35.8795C16.213 35.9513 16.2566 36.0165 16.3115 36.0715C16.3665 36.1264 16.4317 36.17 16.5035 36.1998C16.5753 36.2295 16.6523 36.2448 16.73 36.2448C16.8078 36.2448 16.8847 36.2295 16.9565 36.1998C17.0283 36.17 17.0936 36.1264 17.1485 36.0715C17.2035 36.0165 17.2471 35.9513 17.2768 35.8795C17.3066 35.8077 17.3219 35.7307 17.3219 35.653C17.3158 35.5002 17.2508 35.3558 17.1405 35.2499C17.0303 35.144 16.8834 35.0848 16.7305 35.0848C16.5776 35.0848 16.4307 35.144 16.3205 35.2499C16.2102 35.3558 16.1443 35.5002 16.1382 35.653Z" fill="#6EBEE0"/>
<path opacity="0.4" d="M22.5978 36.434C22.3907 36.434 22.1921 36.3517 22.0456 36.2053C21.8992 36.0588 21.8169 35.8602 21.8169 35.6531C21.8169 35.446 21.8992 35.2474 22.0456 35.1009C22.1921 34.9545 22.3907 34.8722 22.5978 34.8722C22.8049 34.8722 23.0035 34.9545 23.15 35.1009C23.2964 35.2474 23.3787 35.446 23.3787 35.6531C23.3787 35.8602 23.2964 36.0588 23.15 36.2053C23.0035 36.3517 22.8049 36.434 22.5978 36.434Z" fill="#5D026E"/>
<path opacity="0.4" fill-rule="evenodd" clip-rule="evenodd" d="M22.1479 35.653C22.1479 35.7722 22.1952 35.8865 22.2795 35.9707C22.3638 36.055 22.478 36.1024 22.5972 36.1024C22.7164 36.1024 22.8307 36.055 22.915 35.9707C22.9992 35.8865 23.0466 35.7722 23.0466 35.653C23.0466 35.5338 22.9992 35.4195 22.915 35.3353C22.8307 35.251 22.7164 35.2037 22.5972 35.2037C22.478 35.2037 22.3638 35.251 22.2795 35.3353C22.1952 35.4195 22.1479 35.5338 22.1479 35.653ZM22.0054 35.653C22.0054 35.81 22.0677 35.9605 22.1787 36.0715C22.2897 36.1825 22.4403 36.2449 22.5972 36.2449C22.7542 36.2449 22.9047 36.1825 23.0157 36.0715C23.1267 35.9605 23.1891 35.81 23.1891 35.653C23.1891 35.496 23.1267 35.3455 23.0157 35.2345C22.9047 35.1235 22.7542 35.0612 22.5972 35.0612C22.4403 35.0612 22.2897 35.1235 22.1787 35.2345C22.0677 35.3455 22.0054 35.496 22.0054 35.653Z" fill="#6EBEE0"/>
<path opacity="0.4" d="M21.4621 35.0136C21.3595 35.0136 21.258 34.9934 21.1632 34.9541C21.0685 34.9149 20.9824 34.8574 20.9099 34.7849C20.8374 34.7123 20.7798 34.6263 20.7406 34.5315C20.7014 34.4368 20.6812 34.3352 20.6812 34.2327C20.6812 34.1301 20.7014 34.0286 20.7406 33.9338C20.7798 33.8391 20.8374 33.753 20.9099 33.6805C20.9824 33.608 21.0685 33.5505 21.1632 33.5112C21.258 33.472 21.3595 33.4518 21.4621 33.4518C21.6692 33.4518 21.8678 33.5341 22.0142 33.6805C22.1607 33.8269 22.243 34.0256 22.243 34.2327C22.243 34.4398 22.1607 34.6384 22.0142 34.7849C21.8678 34.9313 21.6692 35.0136 21.4621 35.0136Z" fill="#5D026E"/>
<path opacity="0.4" fill-rule="evenodd" clip-rule="evenodd" d="M21.0121 34.2337C21.0121 34.3529 21.0595 34.4672 21.1437 34.5514C21.228 34.6357 21.3423 34.683 21.4615 34.683C21.5807 34.683 21.6949 34.6357 21.7792 34.5514C21.8635 34.4672 21.9108 34.3529 21.9108 34.2337C21.9108 34.1145 21.8635 34.0002 21.7792 33.916C21.6949 33.8317 21.5807 33.7843 21.4615 33.7843C21.3423 33.7843 21.228 33.8317 21.1437 33.916C21.0595 34.0002 21.0121 34.1145 21.0121 34.2337ZM20.8696 34.2337C20.8696 34.3114 20.8849 34.3884 20.9147 34.4602C20.9444 34.532 20.988 34.5972 21.043 34.6522C21.0979 34.7072 21.1632 34.7508 21.235 34.7805C21.3068 34.8102 21.3838 34.8255 21.4615 34.8255C21.5392 34.8255 21.6162 34.8102 21.688 34.7805C21.7598 34.7508 21.825 34.7072 21.88 34.6522C21.9349 34.5972 21.9785 34.532 22.0083 34.4602C22.038 34.3884 22.0533 34.3114 22.0533 34.2337C22.0533 34.0767 21.991 33.9262 21.88 33.8152C21.769 33.7042 21.6184 33.6418 21.4615 33.6418C21.3045 33.6418 21.154 33.7042 21.043 33.8152C20.932 33.9262 20.8696 34.0767 20.8696 34.2337Z" fill="#6EBEE0"/>
<path opacity="0.4" d="M19.7578 36.1012C19.6531 36.1049 19.5486 36.0874 19.4507 36.0498C19.3529 36.0123 19.2636 35.9554 19.1881 35.8825C19.1127 35.8097 19.0527 35.7224 19.0118 35.6259C18.9708 35.5294 18.9497 35.4257 18.9497 35.3208C18.9497 35.216 18.9708 35.1122 19.0118 35.0157C19.0527 34.9192 19.1127 34.8319 19.1881 34.7591C19.2636 34.6863 19.3529 34.6294 19.4507 34.5918C19.5486 34.5542 19.6531 34.5367 19.7578 34.5404C19.9601 34.5475 20.1517 34.6328 20.2923 34.7784C20.4329 34.9239 20.5115 35.1184 20.5115 35.3208C20.5115 35.5232 20.4329 35.7177 20.2923 35.8633C20.1517 36.0089 19.9601 36.0942 19.7578 36.1012Z" fill="#5D026E"/>
<path opacity="0.4" fill-rule="evenodd" clip-rule="evenodd" d="M19.3075 35.3213C19.3075 35.4405 19.3549 35.5548 19.4391 35.6391C19.5234 35.7233 19.6377 35.7707 19.7569 35.7707C19.8761 35.7707 19.9903 35.7233 20.0746 35.6391C20.1589 35.5548 20.2062 35.4405 20.2062 35.3213C20.2062 35.2021 20.1589 35.0878 20.0746 35.0036C19.9903 34.9193 19.8761 34.872 19.7569 34.872C19.6377 34.872 19.5234 34.9193 19.4391 35.0036C19.3549 35.0878 19.3075 35.2021 19.3075 35.3213ZM19.165 35.3213C19.1618 35.401 19.1748 35.4805 19.203 35.555C19.2313 35.6295 19.2744 35.6976 19.3296 35.7551C19.3848 35.8125 19.4511 35.8583 19.5244 35.8895C19.5978 35.9208 19.6767 35.9369 19.7564 35.9369C19.8361 35.9369 19.915 35.9208 19.9884 35.8895C20.0617 35.8583 20.128 35.8125 20.1832 35.7551C20.2384 35.6976 20.2815 35.6295 20.3098 35.555C20.338 35.4805 20.351 35.401 20.3478 35.3213C20.3417 35.1686 20.2767 35.0241 20.1664 34.9182C20.0562 34.8123 19.9093 34.7532 19.7564 34.7532C19.6035 34.7532 19.4566 34.8123 19.3464 34.9182C19.2361 35.0241 19.1711 35.1686 19.165 35.3213Z" fill="#6EBEE0"/>
<path opacity="0.4" fill-rule="evenodd" clip-rule="evenodd" d="M25.6024 30.5193V31.6526L25.0115 32.2445V33.1441H24.4434V32.0089L25.0353 31.418V30.753L23.7338 29.4515V27.466H24.3019V29.2178L25.6024 30.5193ZM23.4022 30.164V32.5209L22.8816 33.089V34.989H22.3135V32.8686L22.8341 32.3005V30.3986L21.2733 28.8378V25.9517H21.8404V28.6022L23.4022 30.164ZM21.7929 30.5183V33.6172H21.2258V30.7539L19.9243 29.4524V26.7554H20.4924V29.2178L21.7939 30.5193L21.7929 30.5183ZM20.0421 31.418V34.6822H19.4749V31.6526L18.2209 30.3986V28.6022L18.8118 28.0103V26.8266H19.3799V28.2459L18.7881 28.8368V30.164L20.0421 31.418ZM18.4575 31.418V33.1441H17.8894V31.6526L16.6354 30.3986V26.8979H17.2035V30.164L18.4575 31.418ZM17.0135 32.577V35.0375H16.4463V32.8126L16.0445 32.4107H15.3348L13.9858 31.0617V29.8087L14.8845 28.91V27.466H15.4526V29.1446L14.553 30.0443V30.8261L15.5695 31.8426H16.2801L17.0135 32.577Z" fill="#5D026E"/>
<path opacity="0.4" fill-rule="evenodd" clip-rule="evenodd" d="M25.3897 30.6064V31.564L24.7978 32.1558V33.2388H24.6553V32.096L25.2472 31.5041V30.6634L23.9457 29.3619V27.4638H24.0882V29.3039L25.3897 30.6064ZM23.1885 30.2511V32.437L22.6679 33.0051V35.0837H22.5264V32.95L23.047 32.3819V30.31L21.4852 28.7482V25.9495H21.6277V28.6883L23.1885 30.2501V30.2511ZM21.5802 30.6054V33.7119H21.4377V30.6643L20.1362 29.3628V26.8966H20.2787V29.3049L21.5802 30.6054ZM19.8293 31.5051V34.7759H19.6868V31.564L18.4328 30.31V28.6893L19.0247 28.0974V25.8317H19.1672V28.1563L18.5753 28.7482V30.2511L19.8293 31.5051ZM18.2438 31.5051V33.1904H18.1013V31.564L16.8473 30.31V26.8966H16.9898V30.2501L18.2438 31.5051ZM16.7998 32.6641V35.0837H16.6582V32.723L16.1319 32.1967H15.4223L14.1968 30.9721V29.8958L15.0964 28.9971V27.4647H15.2389V29.056L14.3393 29.9547V30.9142L15.4812 32.0542H16.1908L16.8007 32.665L16.7998 32.6641Z" fill="#6EBEE0"/>
<path opacity="0.4" d="M5.89258 11.3046C5.89258 11.5117 5.97485 11.7103 6.1213 11.8568C6.26775 12.0032 6.46637 12.0855 6.67348 12.0855C6.88059 12.0855 7.07921 12.0032 7.22566 11.8568C7.3721 11.7103 7.45438 11.5117 7.45438 11.3046C7.45438 11.0975 7.3721 10.8988 7.22566 10.7524C7.07921 10.606 6.88059 10.5237 6.67348 10.5237C6.46637 10.5237 6.26775 10.606 6.1213 10.7524C5.97485 10.8988 5.89258 11.0975 5.89258 11.3046Z" fill="#5D026E"/>
<path opacity="0.4" fill-rule="evenodd" clip-rule="evenodd" d="M6.67437 11.7548C6.55507 11.7548 6.44065 11.7074 6.3563 11.6231C6.27194 11.5387 6.22454 11.4243 6.22454 11.305C6.22454 11.1857 6.27194 11.0713 6.3563 10.9869C6.44065 10.9026 6.55507 10.8552 6.67437 10.8552C6.79367 10.8552 6.90809 10.9026 6.99244 10.9869C7.0768 11.0713 7.12419 11.1857 7.12419 11.305C7.12419 11.4243 7.0768 11.5387 6.99244 11.6231C6.90809 11.7074 6.79367 11.7548 6.67437 11.7548ZM6.67437 11.8973C6.5174 11.8973 6.36686 11.835 6.25587 11.724C6.14488 11.613 6.08252 11.4624 6.08252 11.3055C6.08252 11.1485 6.14488 10.998 6.25587 10.887C6.36686 10.776 6.5174 10.7136 6.67437 10.7136C6.82711 10.7197 6.97156 10.7847 7.07746 10.895C7.18337 11.0052 7.24251 11.1521 7.24251 11.305C7.24251 11.4579 7.18337 11.6048 7.07746 11.715C6.97156 11.8253 6.82711 11.8902 6.67437 11.8964V11.8973Z" fill="#6EBEE0"/>
<path opacity="0.4" d="M5.89258 17.7892C5.89258 17.9963 5.97485 18.1949 6.1213 18.3414C6.26775 18.4878 6.46637 18.5701 6.67348 18.5701C6.88059 18.5701 7.07921 18.4878 7.22566 18.3414C7.3721 18.1949 7.45438 17.9963 7.45438 17.7892C7.45438 17.5821 7.3721 17.3835 7.22566 17.237C7.07921 17.0906 6.88059 17.0083 6.67348 17.0083C6.46637 17.0083 6.26775 17.0906 6.1213 17.237C5.97485 17.3835 5.89258 17.5821 5.89258 17.7892Z" fill="#5D026E"/>
<path opacity="0.4" fill-rule="evenodd" clip-rule="evenodd" d="M6.67437 18.2375C6.55519 18.2375 6.4409 18.1901 6.35663 18.1059C6.27236 18.0216 6.22502 17.9073 6.22502 17.7881C6.22502 17.669 6.27236 17.5547 6.35663 17.4704C6.4409 17.3861 6.55519 17.3388 6.67437 17.3388C6.79354 17.3388 6.90784 17.3861 6.99211 17.4704C7.07638 17.5547 7.12372 17.669 7.12372 17.7881C7.12372 17.9073 7.07638 18.0216 6.99211 18.1059C6.90784 18.1901 6.79354 18.2375 6.67437 18.2375ZM6.67437 18.38C6.5174 18.38 6.36686 18.3176 6.25587 18.2066C6.14488 18.0956 6.08252 17.9451 6.08252 17.7881C6.08252 17.6312 6.14488 17.4806 6.25587 17.3696C6.36686 17.2586 6.5174 17.1963 6.67437 17.1963C6.83134 17.1963 6.98188 17.2586 7.09287 17.3696C7.20386 17.4806 7.26622 17.6312 7.26622 17.7881C7.26622 17.9451 7.20386 18.0956 7.09287 18.2066C6.98188 18.3176 6.83134 18.38 6.67437 18.38Z" fill="#6EBEE0"/>
<path opacity="0.4" d="M4.00095 19.255C3.99729 19.3598 4.01477 19.4642 4.05235 19.5621C4.08992 19.66 4.14682 19.7493 4.21965 19.8247C4.29248 19.9001 4.37975 19.9601 4.47626 20.0011C4.57276 20.042 4.67653 20.0632 4.78137 20.0632C4.88622 20.0632 4.98998 20.042 5.08649 20.0011C5.183 19.9601 5.27027 19.9001 5.3431 19.8247C5.41593 19.7493 5.47283 19.66 5.5104 19.5621C5.54798 19.4642 5.56546 19.3598 5.5618 19.255C5.5618 19.0479 5.47953 18.8493 5.33308 18.7028C5.18663 18.5564 4.98801 18.4741 4.7809 18.4741C4.57379 18.4741 4.37517 18.5564 4.22872 18.7028C4.08227 18.8493 4.00095 19.0479 4.00095 19.255Z" fill="#5D026E"/>
<path opacity="0.4" fill-rule="evenodd" clip-rule="evenodd" d="M4.7813 19.7054C4.66213 19.7054 4.54783 19.658 4.46356 19.5738C4.3793 19.4895 4.33195 19.3752 4.33195 19.256C4.33195 19.1369 4.3793 19.0226 4.46356 18.9383C4.54783 18.854 4.66213 18.8067 4.7813 18.8067C4.90048 18.8067 5.01477 18.854 5.09904 18.9383C5.18331 19.0226 5.23065 19.1369 5.23065 19.256C5.23065 19.3752 5.18331 19.4895 5.09904 19.5738C5.01477 19.658 4.90048 19.7054 4.7813 19.7054ZM4.7813 19.8479C4.62433 19.8479 4.4738 19.7855 4.3628 19.6745C4.25181 19.5635 4.18945 19.413 4.18945 19.256C4.18945 19.0991 4.25181 18.9485 4.3628 18.8375C4.4738 18.7265 4.62433 18.6642 4.7813 18.6642C4.93404 18.6703 5.07849 18.7353 5.1844 18.8455C5.2903 18.9558 5.34945 19.1027 5.34945 19.2556C5.34945 19.4084 5.2903 19.5554 5.1844 19.6656C5.07849 19.7758 4.93404 19.8408 4.7813 19.8469V19.8479Z" fill="#6EBEE0"/>
<path opacity="0.4" d="M4.61377 22.4727C4.61377 22.6798 4.69604 22.8784 4.84249 23.0249C4.98894 23.1713 5.18756 23.2536 5.39467 23.2536C5.60178 23.2536 5.8004 23.1713 5.94685 23.0249C6.0933 22.8784 6.17557 22.6798 6.17557 22.4727C6.17557 22.2656 6.0933 22.0669 5.94685 21.9205C5.8004 21.774 5.60178 21.6918 5.39467 21.6918C5.18756 21.6918 4.98894 21.774 4.84249 21.9205C4.69604 22.0669 4.61377 22.2656 4.61377 22.4727Z" fill="#5D026E"/>
<path opacity="0.4" fill-rule="evenodd" clip-rule="evenodd" d="M5.39507 22.9219C5.2759 22.9219 5.1616 22.8746 5.07733 22.7903C4.99307 22.7061 4.94572 22.5918 4.94572 22.4726C4.94572 22.3534 4.99307 22.2391 5.07733 22.1548C5.1616 22.0706 5.2759 22.0232 5.39507 22.0232C5.51425 22.0232 5.62854 22.0706 5.71281 22.1548C5.79708 22.2391 5.84442 22.3534 5.84442 22.4726C5.84442 22.5918 5.79708 22.7061 5.71281 22.7903C5.62854 22.8746 5.51425 22.9219 5.39507 22.9219ZM5.39507 23.0644C5.31735 23.0644 5.24039 23.0491 5.16858 23.0194C5.09677 22.9896 5.03153 22.946 4.97657 22.8911C4.92161 22.8361 4.87802 22.7709 4.84827 22.6991C4.81853 22.6273 4.80322 22.5503 4.80322 22.4726C4.80322 22.3949 4.81853 22.3179 4.84827 22.2461C4.87802 22.1743 4.92161 22.109 4.97657 22.0541C5.03153 21.9991 5.09677 21.9555 5.16858 21.9258C5.24039 21.896 5.31735 21.8807 5.39507 21.8807C5.54781 21.8869 5.69226 21.9518 5.79817 22.0621C5.90407 22.1723 5.96322 22.3192 5.96322 22.4721C5.96322 22.625 5.90407 22.7719 5.79817 22.8821C5.69226 22.9924 5.54781 23.0583 5.39507 23.0644Z" fill="#6EBEE0"/>
<path opacity="0.4" d="M4.00095 13.3869C3.99729 13.4916 4.01477 13.5961 4.05235 13.694C4.08992 13.7918 4.14682 13.8811 4.21965 13.9566C4.29248 14.032 4.37975 14.0919 4.47626 14.1329C4.57276 14.1739 4.67653 14.195 4.78137 14.195C4.88622 14.195 4.98998 14.1739 5.08649 14.1329C5.183 14.0919 5.27027 14.032 5.3431 13.9566C5.41593 13.8811 5.47283 13.7918 5.5104 13.694C5.54798 13.5961 5.56546 13.4916 5.5618 13.3869C5.5618 13.1797 5.47953 12.9811 5.33308 12.8347C5.18663 12.6882 4.98801 12.606 4.7809 12.606C4.57379 12.606 4.37517 12.6882 4.22872 12.8347C4.08227 12.9811 4.00095 13.1797 4.00095 13.3869Z" fill="#5D026E"/>
<path opacity="0.4" fill-rule="evenodd" clip-rule="evenodd" d="M4.7813 13.8372C4.662 13.8372 4.54759 13.7898 4.46323 13.7055C4.37887 13.6211 4.33148 13.5067 4.33148 13.3874C4.33148 13.2681 4.37887 13.1537 4.46323 13.0693C4.54759 12.985 4.662 12.9376 4.7813 12.9376C4.9006 12.9376 5.01502 12.985 5.09938 13.0693C5.18374 13.1537 5.23113 13.2681 5.23113 13.3874C5.23113 13.5067 5.18374 13.6211 5.09938 13.7055C5.01502 13.7898 4.9006 13.8372 4.7813 13.8372ZM4.7813 13.9797C4.62433 13.9797 4.4738 13.9174 4.3628 13.8064C4.25181 13.6954 4.18945 13.5448 4.18945 13.3879C4.18945 13.2309 4.25181 13.0804 4.3628 12.9694C4.4738 12.8584 4.62433 12.796 4.7813 12.796C4.93404 12.8021 5.07849 12.8671 5.1844 12.9774C5.2903 13.0876 5.34945 13.2345 5.34945 13.3874C5.34945 13.5403 5.2903 13.6872 5.1844 13.7974C5.07849 13.9077 4.93404 13.9726 4.7813 13.9788V13.9797Z" fill="#6EBEE0"/>
<path opacity="0.4" d="M5.41992 14.5231C5.41992 14.6256 5.44012 14.7272 5.47936 14.8219C5.51861 14.9167 5.57613 15.0028 5.64864 15.0753C5.72116 15.1478 5.80724 15.2053 5.90198 15.2445C5.99673 15.2838 6.09827 15.304 6.20082 15.304C6.30337 15.304 6.40492 15.2838 6.49966 15.2445C6.5944 15.2053 6.68049 15.1478 6.753 15.0753C6.82551 15.0028 6.88304 14.9167 6.92228 14.8219C6.96152 14.7272 6.98172 14.6256 6.98172 14.5231C6.98172 14.316 6.89945 14.1174 6.753 13.9709C6.60655 13.8245 6.40793 13.7422 6.20082 13.7422C5.99371 13.7422 5.79509 13.8245 5.64864 13.9709C5.5022 14.1174 5.41992 14.316 5.41992 14.5231Z" fill="#5D026E"/>
<path opacity="0.4" fill-rule="evenodd" clip-rule="evenodd" d="M6.20074 14.9733C6.08144 14.9733 5.96702 14.9259 5.88266 14.8416C5.7983 14.7572 5.75091 14.6428 5.75091 14.5235C5.75091 14.4042 5.7983 14.2898 5.88266 14.2054C5.96702 14.1211 6.08144 14.0737 6.20074 14.0737C6.32004 14.0737 6.43445 14.1211 6.51881 14.2054C6.60317 14.2898 6.65056 14.4042 6.65056 14.5235C6.65056 14.6428 6.60317 14.7572 6.51881 14.8416C6.43445 14.9259 6.32004 14.9733 6.20074 14.9733ZM6.20074 15.1158C6.04377 15.1158 5.89323 15.0535 5.78224 14.9425C5.67124 14.8315 5.60889 14.6809 5.60889 14.524C5.60889 14.367 5.67124 14.2165 5.78224 14.1055C5.89323 13.9945 6.04377 13.9321 6.20074 13.9321C6.35348 13.9383 6.49793 14.0032 6.60383 14.1135C6.70973 14.2237 6.76888 14.3706 6.76888 14.5235C6.76888 14.6764 6.70973 14.8233 6.60383 14.9335C6.49793 15.0438 6.35348 15.1097 6.20074 15.1158Z" fill="#6EBEE0"/>
<path opacity="0.4" d="M4.33057 16.2265C4.33057 16.4336 4.41284 16.6322 4.55929 16.7786C4.70573 16.9251 4.90436 17.0074 5.11147 17.0074C5.31857 17.0074 5.5172 16.9251 5.66365 16.7786C5.81009 16.6322 5.89237 16.4336 5.89237 16.2265C5.89237 16.0193 5.81009 15.8207 5.66365 15.6743C5.5172 15.5278 5.31857 15.4456 5.11147 15.4456C4.90436 15.4456 4.70573 15.5278 4.55929 15.6743C4.41284 15.8207 4.33057 16.0193 4.33057 16.2265Z" fill="#5D026E"/>
<path opacity="0.4" fill-rule="evenodd" clip-rule="evenodd" d="M5.11236 16.6768C4.99318 16.6768 4.87889 16.6295 4.79462 16.5452C4.71035 16.4609 4.66301 16.3466 4.66301 16.2275C4.66301 16.1083 4.71035 15.994 4.79462 15.9097C4.87889 15.8255 4.99318 15.7781 5.11236 15.7781C5.23153 15.7781 5.34583 15.8255 5.4301 15.9097C5.51437 15.994 5.56171 16.1083 5.56171 16.2275C5.56171 16.3466 5.51437 16.4609 5.4301 16.5452C5.34583 16.6295 5.23153 16.6768 5.11236 16.6768ZM5.11236 16.8193C4.95539 16.8193 4.80485 16.757 4.69386 16.646C4.58286 16.535 4.52051 16.3844 4.52051 16.2275C4.52051 16.0705 4.58286 15.92 4.69386 15.809C4.80485 15.698 4.95539 15.6356 5.11236 15.6356C5.2651 15.6417 5.40955 15.7067 5.51545 15.817C5.62136 15.9272 5.6805 16.0741 5.6805 16.227C5.6805 16.3799 5.62136 16.5268 5.51545 16.637C5.40955 16.7473 5.2651 16.8122 5.11236 16.8184V16.8193Z" fill="#6EBEE0"/>
<path opacity="0.4" fill-rule="evenodd" clip-rule="evenodd" d="M9.9142 10.382H8.7799L8.189 10.9738H7.2884V11.541H8.4227L9.01455 10.9501H9.6786L10.9801 12.2516H12.9665V11.6835H11.2147L9.91325 10.382H9.9142ZM10.2695 12.5822H7.9116L7.34445 13.1028H5.4435V13.6709H7.5639L8.132 13.1503H10.0339L11.5957 14.7121H14.4818V14.144H11.8313L10.2695 12.5822ZM9.9142 14.1915H6.8153V14.7596H9.67955L10.981 16.0611H16.1148V15.493H11.2157L9.9142 14.1915ZM9.0155 15.9423H5.7513V16.5104H8.7799L10.0339 17.7644H11.8313L12.4231 17.1726H16.1148V16.6045H12.1875L11.5957 17.1963H10.2695L9.0155 15.9423ZM9.0155 17.5279H7.28935V18.096H8.78085L10.0348 19.35H14.4818V18.7819H10.2695L9.0155 17.5279ZM7.8565 18.9719H5.396V19.539H7.6209L8.02275 19.9399V20.6505L9.37175 21.9995H10.6248L11.5235 21.1008H12.9675V20.5327H11.2879L10.3892 21.4314H9.60735L8.59085 20.4149V19.7053L7.8565 18.9719Z" fill="#5D026E"/>
<path opacity="0.4" fill-rule="evenodd" clip-rule="evenodd" d="M9.82596 10.5947H8.86741L8.27651 11.1856H7.19256V11.3281H8.33446L8.92536 10.7362H9.76611L11.0676 12.0377H12.9657V11.8952H11.1256L9.82406 10.5938L9.82596 10.5947ZM10.1803 12.7949H7.99436L7.42626 13.3155H5.34766V13.458H7.48136L8.04946 12.9364H10.1214L11.6832 14.4982H14.481V14.3557H11.7431L10.1803 12.7949ZM9.82596 14.4042H6.71946V14.5467H9.76706L11.0686 15.8482H16.1131V15.7057H11.1275L9.82596 14.4042ZM8.92631 16.155H5.65546V16.2976H8.86741L10.1214 17.5516H11.7421L12.334 16.9597H16.114V16.8172H12.2751L11.6832 17.409H10.1803L8.92631 16.155ZM8.92631 17.7406H7.24101V17.8821H8.86741L10.1214 19.1361H14.4819V18.9936H10.1803L8.92631 17.7406ZM7.76731 19.1836H5.34766V19.3262H7.70841L8.23471 19.8515V20.5621L9.45926 21.7867H10.5356L11.4343 20.887H12.9667V20.7445H11.3754L10.4767 21.6441H9.51721L8.37721 20.5032V19.7935L7.76731 19.1836Z" fill="#6EBEE0"/>
<path opacity="0.4" d="M8.30664 31.2991C8.30664 31.092 8.38891 30.8934 8.53536 30.7469C8.68181 30.6005 8.88043 30.5182 9.08754 30.5182C9.29465 30.5182 9.49327 30.6005 9.63972 30.7469C9.78617 30.8934 9.86844 31.092 9.86844 31.2991C9.86844 31.5062 9.78617 31.7048 9.63972 31.8513C9.49327 31.9977 9.29465 32.08 9.08754 32.08C8.88043 32.08 8.68181 31.9977 8.53536 31.8513C8.38891 31.7048 8.30664 31.5062 8.30664 31.2991Z" fill="#5D026E"/>
<path opacity="0.4" fill-rule="evenodd" clip-rule="evenodd" d="M9.08724 30.8498C8.96806 30.8498 8.85377 30.8971 8.7695 30.9814C8.68523 31.0656 8.63789 31.1799 8.63789 31.2991C8.63789 31.4183 8.68523 31.5326 8.7695 31.6169C8.85377 31.7011 8.96806 31.7485 9.08724 31.7485C9.20654 31.7485 9.32095 31.7011 9.40531 31.6167C9.48967 31.5324 9.53706 31.4179 9.53706 31.2986C9.53706 31.1793 9.48967 31.0649 9.40531 30.9806C9.32095 30.8962 9.20654 30.8498 9.08724 30.8498ZM9.08724 30.7073C9.00758 30.7041 8.9281 30.717 8.85357 30.7453C8.77904 30.7736 8.71098 30.8166 8.6535 30.8718C8.59601 30.9271 8.55027 30.9933 8.51903 31.0667C8.48778 31.14 8.47168 31.2189 8.47168 31.2986C8.47168 31.3784 8.48778 31.4573 8.51903 31.5306C8.55027 31.6039 8.59601 31.6702 8.6535 31.7254C8.71098 31.7807 8.77904 31.8237 8.85357 31.852C8.9281 31.8803 9.00758 31.8932 9.08724 31.89C9.23998 31.8839 9.38443 31.8189 9.49033 31.7087C9.59623 31.5984 9.65538 31.4515 9.65538 31.2986C9.65538 31.1458 9.59623 30.9988 9.49033 30.8886C9.38443 30.7784 9.23998 30.7134 9.08724 30.7073Z" fill="#6EBEE0"/>
<path opacity="0.4" d="M8.30664 25.1944C8.30664 24.9872 8.38891 24.7886 8.53536 24.6422C8.68181 24.4957 8.88043 24.4135 9.08754 24.4135C9.29465 24.4135 9.49327 24.4957 9.63972 24.6422C9.78617 24.7886 9.86844 24.9872 9.86844 25.1944C9.86844 25.4015 9.78617 25.6001 9.63972 25.7465C9.49327 25.893 9.29465 25.9753 9.08754 25.9753C8.88043 25.9753 8.68181 25.893 8.53536 25.7465C8.38891 25.6001 8.30664 25.4015 8.30664 25.1944Z" fill="#5D026E"/>
<path opacity="0.4" fill-rule="evenodd" clip-rule="evenodd" d="M9.08724 24.7451C8.96806 24.7451 8.85377 24.7925 8.7695 24.8768C8.68523 24.961 8.63789 25.0753 8.63789 25.1945C8.63789 25.3137 8.68523 25.428 8.7695 25.5122C8.85377 25.5965 8.96806 25.6438 9.08724 25.6438C9.20641 25.6438 9.32071 25.5965 9.40498 25.5122C9.48924 25.428 9.53659 25.3137 9.53659 25.1945C9.53659 25.0753 9.48924 24.961 9.40498 24.8768C9.32071 24.7925 9.20641 24.7451 9.08724 24.7451ZM9.08724 24.6026C9.00758 24.5995 8.9281 24.6124 8.85357 24.6407C8.77904 24.6689 8.71098 24.712 8.6535 24.7672C8.59601 24.8225 8.55027 24.8887 8.51903 24.9621C8.48778 25.0354 8.47168 25.1143 8.47168 25.194C8.47168 25.2737 8.48778 25.3526 8.51903 25.426C8.55027 25.4993 8.59601 25.5656 8.6535 25.6208C8.71098 25.6761 8.77904 25.7191 8.85357 25.7474C8.9281 25.7757 9.00758 25.7886 9.08724 25.7854C9.23998 25.7793 9.38443 25.7143 9.49033 25.6041C9.59623 25.4938 9.65538 25.3469 9.65538 25.194C9.65538 25.0412 9.59623 24.8942 9.49033 24.784C9.38443 24.6738 9.23998 24.6088 9.08724 24.6026Z" fill="#6EBEE0"/>
<path opacity="0.4" d="M6.41406 23.7267C6.41406 23.5196 6.49634 23.321 6.64278 23.1745C6.78923 23.0281 6.98785 22.9458 7.19496 22.9458C7.40207 22.9458 7.60069 23.0281 7.74714 23.1745C7.89359 23.321 7.97586 23.5196 7.97586 23.7267C7.97586 23.9338 7.89359 24.1324 7.74714 24.2789C7.60069 24.4253 7.40207 24.5076 7.19496 24.5076C6.98785 24.5076 6.78923 24.4253 6.64278 24.2789C6.49634 24.1324 6.41406 23.9338 6.41406 23.7267Z" fill="#5D026E"/>
<path opacity="0.4" fill-rule="evenodd" clip-rule="evenodd" d="M7.19488 23.2784C7.0757 23.2784 6.96141 23.3257 6.87714 23.41C6.79287 23.4942 6.74553 23.6085 6.74553 23.7277C6.74553 23.8469 6.79287 23.9612 6.87714 24.0455C6.96141 24.1297 7.0757 24.1771 7.19488 24.1771C7.31405 24.1771 7.42835 24.1297 7.51262 24.0455C7.59689 23.9612 7.64423 23.8469 7.64423 23.7277C7.64423 23.6085 7.59689 23.4942 7.51262 23.41C7.42835 23.3257 7.31405 23.2784 7.19488 23.2784ZM7.19488 23.1359C7.03791 23.1359 6.88737 23.1982 6.77638 23.3092C6.66538 23.4202 6.60303 23.5707 6.60303 23.7277C6.60303 23.8847 6.66538 24.0352 6.77638 24.1462C6.88737 24.2572 7.03791 24.3196 7.19488 24.3196C7.35185 24.3196 7.50239 24.2572 7.61338 24.1462C7.72437 24.0352 7.78673 23.8847 7.78673 23.7277C7.78673 23.5707 7.72437 23.4202 7.61338 23.3092C7.50239 23.1982 7.35185 23.1359 7.19488 23.1359Z" fill="#6EBEE0"/>
<path opacity="0.4" d="M6.41405 29.5946C6.41039 29.4899 6.42787 29.3854 6.46545 29.2875C6.50302 29.1897 6.55992 29.1003 6.63275 29.0249C6.70558 28.9495 6.79285 28.8895 6.88936 28.8486C6.98586 28.8076 7.08963 28.7865 7.19447 28.7865C7.29932 28.7865 7.40308 28.8076 7.49959 28.8486C7.5961 28.8895 7.68337 28.9495 7.7562 29.0249C7.82903 29.1003 7.88593 29.1897 7.9235 29.2875C7.96108 29.3854 7.97856 29.4899 7.9749 29.5946C7.96784 29.7969 7.88253 29.9885 7.73694 30.1291C7.59135 30.2697 7.39687 30.3483 7.19447 30.3483C6.99208 30.3483 6.7976 30.2697 6.65201 30.1291C6.50642 29.9885 6.42111 29.7969 6.41405 29.5946Z" fill="#5D026E"/>
<path opacity="0.4" fill-rule="evenodd" clip-rule="evenodd" d="M7.19488 29.1454C7.07558 29.1454 6.96116 29.1928 6.8768 29.2772C6.79244 29.3615 6.74505 29.476 6.74505 29.5953C6.74505 29.7146 6.79244 29.829 6.8768 29.9133C6.96116 29.9977 7.07558 30.0451 7.19488 30.0451C7.31418 30.0451 7.42859 29.9977 7.51295 29.9133C7.59731 29.829 7.6447 29.7146 7.6447 29.5953C7.6447 29.476 7.59731 29.3615 7.51295 29.2772C7.42859 29.1928 7.31418 29.1454 7.19488 29.1454ZM7.19488 29.0029C7.03791 29.0029 6.88737 29.0653 6.77638 29.1763C6.66538 29.2873 6.60303 29.4378 6.60303 29.5948C6.60303 29.7517 6.66538 29.9023 6.77638 30.0133C6.88737 30.1243 7.03791 30.1866 7.19488 30.1866C7.34762 30.1805 7.49207 30.1155 7.59797 30.0053C7.70387 29.8951 7.76302 29.7481 7.76302 29.5953C7.76302 29.4424 7.70387 29.2955 7.59797 29.1852C7.49207 29.075 7.34762 29.01 7.19488 29.0039V29.0029Z" fill="#6EBEE0"/>
<path opacity="0.4" d="M7.83398 28.4595C7.83398 28.3569 7.85418 28.2554 7.89343 28.1607C7.93267 28.0659 7.99019 27.9798 8.0627 27.9073C8.13522 27.8348 8.2213 27.7773 8.31605 27.738C8.41079 27.6988 8.51234 27.6786 8.61488 27.6786C8.71743 27.6786 8.81898 27.6988 8.91372 27.738C9.00847 27.7773 9.09455 27.8348 9.16706 27.9073C9.23958 27.9798 9.2971 28.0659 9.33634 28.1607C9.37559 28.2554 9.39578 28.3569 9.39578 28.4595C9.39578 28.6666 9.31351 28.8652 9.16706 29.0117C9.02062 29.1581 8.82199 29.2404 8.61488 29.2404C8.40778 29.2404 8.20915 29.1581 8.0627 29.0117C7.91626 28.8652 7.83398 28.6666 7.83398 28.4595Z" fill="#5D026E"/>
<path opacity="0.4" fill-rule="evenodd" clip-rule="evenodd" d="M8.61263 28.011C8.49345 28.011 8.37916 28.0584 8.29489 28.1426C8.21062 28.2269 8.16328 28.3412 8.16328 28.4604C8.16328 28.5795 8.21062 28.6938 8.29489 28.7781C8.37916 28.8624 8.49345 28.9097 8.61263 28.9097C8.73193 28.9097 8.84634 28.8623 8.9307 28.778C9.01506 28.6936 9.06245 28.5792 9.06245 28.4599C9.06245 28.3406 9.01506 28.2262 8.9307 28.1418C8.84634 28.0575 8.73193 28.0101 8.61263 28.0101V28.011ZM8.61263 27.8685C8.53297 27.8653 8.45349 27.8783 8.37896 27.9065C8.30443 27.9348 8.23637 27.9779 8.17889 28.0331C8.1214 28.0883 8.07566 28.1546 8.04442 28.2279C8.01318 28.3013 7.99707 28.3802 7.99707 28.4599C7.99707 28.5396 8.01318 28.6185 8.04442 28.6918C8.07566 28.7652 8.1214 28.8315 8.17889 28.8867C8.23637 28.9419 8.30443 28.985 8.37896 29.0132C8.45349 29.0415 8.53297 29.0545 8.61263 29.0513C8.76537 29.0451 8.90982 28.9802 9.01572 28.8699C9.12163 28.7597 9.18077 28.6128 9.18077 28.4599C9.18077 28.307 9.12163 28.1601 9.01572 28.0499C8.90982 27.9396 8.76537 27.8746 8.61263 27.8685Z" fill="#6EBEE0"/>
<path opacity="0.4" d="M6.74463 26.7553C6.74463 26.6527 6.76483 26.5512 6.80407 26.4564C6.84332 26.3617 6.90084 26.2756 6.97335 26.2031C7.04586 26.1306 7.13195 26.0731 7.22669 26.0338C7.32143 25.9946 7.42298 25.9744 7.52553 25.9744C7.62808 25.9744 7.72962 25.9946 7.82437 26.0338C7.91911 26.0731 8.0052 26.1306 8.07771 26.2031C8.15022 26.2756 8.20774 26.3617 8.24699 26.4564C8.28623 26.5512 8.30643 26.6527 8.30643 26.7553C8.30643 26.9624 8.22416 27.161 8.07771 27.3074C7.93126 27.4539 7.73264 27.5362 7.52553 27.5362C7.31842 27.5362 7.1198 27.4539 6.97335 27.3074C6.8269 27.161 6.74463 26.9624 6.74463 26.7553Z" fill="#5D026E"/>
<path opacity="0.4" fill-rule="evenodd" clip-rule="evenodd" d="M7.52544 26.3069C7.40627 26.3069 7.29197 26.3543 7.20771 26.4385C7.12344 26.5228 7.07609 26.6371 7.07609 26.7563C7.07609 26.8755 7.12344 26.9897 7.20771 27.074C7.29197 27.1583 7.40627 27.2056 7.52544 27.2056C7.64462 27.2056 7.75891 27.1583 7.84318 27.074C7.92745 26.9897 7.97479 26.8755 7.97479 26.7563C7.97479 26.6371 7.92745 26.5228 7.84318 26.4385C7.75891 26.3543 7.64462 26.3069 7.52544 26.3069ZM7.52544 26.1644C7.36848 26.1644 7.21794 26.2268 7.10694 26.3378C6.99595 26.4488 6.93359 26.5993 6.93359 26.7563C6.93359 26.9132 6.99595 27.0638 7.10694 27.1748C7.21794 27.2858 7.36848 27.3481 7.52544 27.3481C7.68241 27.3481 7.83295 27.2858 7.94395 27.1748C8.05494 27.0638 8.11729 26.9132 8.11729 26.7563C8.11729 26.5993 8.05494 26.4488 7.94395 26.3378C7.83295 26.2268 7.68241 26.1644 7.52544 26.1644Z" fill="#6EBEE0"/>
<path opacity="0.4" fill-rule="evenodd" clip-rule="evenodd" d="M29.1188 17.2666H30.8402L32.4961 18.9234H33.7083L34.4464 18.1853L34.8815 18.6204L33.9638 19.539H32.2415L30.5856 17.8822H29.3734L28.2809 18.9747L27.8449 18.5406L29.1179 17.2676L29.1188 17.2666ZM8.03643 21.4561H12.0445V22.0708H8.29103L7.55763 22.8042H5.98633V22.1886H7.30303L8.03643 21.4561Z" fill="#5D026E"/>
<path opacity="0.4" fill-rule="evenodd" clip-rule="evenodd" d="M29.2167 17.5041H30.7424L32.3982 19.16H33.8061L34.6136 18.3525L34.7143 18.4532L33.865 19.3015H32.3393L30.6835 17.6457H29.2756L28.1128 18.8075L28.0121 18.7078L29.2167 17.5041ZM8.13333 21.6917H12.2791V21.8342H8.19413L7.46073 22.5676H5.98633V22.4251H7.39993L8.13333 21.6917Z" fill="#6EBEE0"/>
<path opacity="0.4" fill-rule="evenodd" clip-rule="evenodd" d="M12.3282 32.1275H11.192L10.6011 31.5356H9.70148V30.9675H10.8358L11.4276 31.5594H12.0917L13.3932 30.2579H15.3796V30.826H13.6278L12.3263 32.1275H12.3282ZM12.6826 30.3994H10.3247L9.75753 29.8798H7.85658V29.3117H9.97793L10.546 29.8323H12.4479L14.0088 28.2705H16.8949V28.8386H14.2444L12.6826 30.3994ZM12.3282 28.7911H9.22838V28.223H12.0926L13.3941 26.9215H17.5808V27.4896H13.6288L12.3282 28.7911ZM11.4286 27.0402H8.16438V26.4721H11.193L12.447 25.2181H14.2444L14.8362 25.81H17.5817V26.3781H14.6006L14.0088 25.7862H12.6835L11.4286 27.0402ZM11.4286 25.4547H9.70243V24.8866H11.1939L12.4479 23.6326H16.8949V24.2007H12.6835L11.4286 25.4547ZM10.2696 24.0107H7.80908V23.4435H10.034L10.4358 23.0426V22.332L11.7848 20.983H13.0379L13.9366 21.8817H15.3806V22.4498H13.701L12.8023 21.5511H12.0204L11.0039 22.5676V23.2773L10.2696 24.0107Z" fill="#5D026E"/>
<path opacity="0.4" fill-rule="evenodd" clip-rule="evenodd" d="M12.239 31.9127H11.2805L10.6896 31.3218H9.60564V31.1793H10.7475L11.3384 31.7711H12.1792L13.4807 30.4696H15.3788V30.6121H13.5386L12.2371 31.9136L12.239 31.9127ZM12.5934 30.1856H10.4074L9.83934 29.665H7.76074V29.5225H9.89444L10.4625 30.044H12.5345L14.0963 28.4822H16.894V28.6247H14.1561L12.5943 30.1856H12.5934ZM12.239 28.5763H9.13254V28.4347H12.1801L13.4816 27.1332H18.054V27.2757H13.5405L12.239 28.5763ZM11.3394 26.8254H8.06854V26.6839H11.2805L12.5345 25.4299H14.1552L14.747 26.0217H18.053V26.1633H14.6881L14.0963 25.5714H12.5934L11.3394 26.8254ZM11.3394 25.2408H9.65409V25.0983H11.2805L12.5345 23.8443H16.895V23.9868H12.5934L11.3394 25.2408ZM10.1804 23.7968H7.76074V23.6553H10.1215L10.6478 23.129V22.4193L11.8723 21.1938H12.9487L13.8474 22.0935H15.3797V22.236H13.7885L12.8898 21.3363H11.9303L10.7903 22.4782V23.1879L10.1804 23.7968Z" fill="#6EBEE0"/>
</g>
<g filter="url(#filter0_d_9197_36551)">
<path d="M6 26V14L8.8 14V19.5H11.6V14H14.4V26H11.6V21.5H8.8V26L6 26Z" fill="url(#paint0_linear_9197_36551)"/>
<path d="M15.3333 26V14H17.2V15H18.1333V16V17H19.5333V18H21.4V17H22.8V15H23.7333V14H24.6667V15V17H25.6V20V26L22.8 26V19.6H21.332V21.2H19.4686V19.6H18.1333V26H15.3333Z" fill="url(#paint1_linear_9197_36551)"/>
<path d="M27.9333 26V17H25.6V14H34V17H30.7333V26H27.9333Z" fill="url(#paint2_linear_9197_36551)"/>
<path d="M8.9248 13.875V19.375H11.4746V13.875H14.5254V26.125H11.4746V21.625H8.9248V26.125H5.875V13.875H8.9248ZM17.3252 13.875V14.875H18.2588V16.875H19.6582V17.875H21.2754V16.875H22.6748V14.875H23.6084V13.875H24.792V16.875H25.4746V13.875H34.125V17.125H30.8584V26.125H27.8086V17.125H25.7246V26.125H22.6748V19.7246H21.457V21.3252H19.3438V19.7246H18.2588V26.125H15.208V13.875H17.3252Z" stroke="black" stroke-width="0.25"/>
</g>
<path d="M38 20C38 29.9411 29.9411 38 20 38C10.0589 38 2 29.9411 2 20C2 10.0589 10.0589 2 20 2C29.9411 2 38 10.0589 38 20ZM2.99715 20C2.99715 29.3904 10.6096 37.0029 20 37.0029C29.3904 37.0029 37.0029 29.3904 37.0029 20C37.0029 10.6096 29.3904 2.99715 20 2.99715C10.6096 2.99715 2.99715 10.6096 2.99715 20Z" fill="#091930"/>
<path d="M38 20C38 29.9411 29.9411 38 20 38C10.0589 38 2 29.9411 2 20C2 10.0589 10.0589 2 20 2C29.9411 2 38 10.0589 38 20ZM2.99715 20C2.99715 29.3904 10.6096 37.0029 20 37.0029C29.3904 37.0029 37.0029 29.3904 37.0029 20C37.0029 10.6096 29.3904 2.99715 20 2.99715C10.6096 2.99715 2.99715 10.6096 2.99715 20Z" fill="black" fill-opacity="0.2"/>
<path d="M38 20C38 29.9411 29.9411 38 20 38C10.0589 38 2 29.9411 2 20C2 10.0589 10.0589 2 20 2C29.9411 2 38 10.0589 38 20ZM2.99715 20C2.99715 29.3904 10.6096 37.0029 20 37.0029C29.3904 37.0029 37.0029 29.3904 37.0029 20C37.0029 10.6096 29.3904 2.99715 20 2.99715C10.6096 2.99715 2.99715 10.6096 2.99715 20Z" fill="black" fill-opacity="0.2"/>
<path d="M38 20C38 29.9411 29.9411 38 20 38C10.0589 38 2 29.9411 2 20C2 10.0589 10.0589 2 20 2C29.9411 2 38 10.0589 38 20ZM2.99715 20C2.99715 29.3904 10.6096 37.0029 20 37.0029C29.3904 37.0029 37.0029 29.3904 37.0029 20C37.0029 10.6096 29.3904 2.99715 20 2.99715C10.6096 2.99715 2.99715 10.6096 2.99715 20Z" fill="black" fill-opacity="0.2"/>
<mask id="path-107-inside-1_9197_36551" fill="white">
<path d="M39 20C39 30.4934 30.4934 39 20 39C9.50659 39 1 30.4934 1 20C1 9.50659 9.50659 1 20 1C30.4934 1 39 9.50659 39 20ZM2.00122 20C2.00122 29.9405 10.0595 37.9988 20 37.9988C29.9405 37.9988 37.9988 29.9405 37.9988 20C37.9988 10.0595 29.9405 2.00122 20 2.00122C10.0595 2.00122 2.00122 10.0595 2.00122 20Z"/>
</mask>
<path d="M39 20C39 30.4934 30.4934 39 20 39C9.50659 39 1 30.4934 1 20C1 9.50659 9.50659 1 20 1C30.4934 1 39 9.50659 39 20ZM2.00122 20C2.00122 29.9405 10.0595 37.9988 20 37.9988C29.9405 37.9988 37.9988 29.9405 37.9988 20C37.9988 10.0595 29.9405 2.00122 20 2.00122C10.0595 2.00122 2.00122 10.0595 2.00122 20Z" stroke="url(#paint3_linear_9197_36551)" stroke-width="2" mask="url(#path-107-inside-1_9197_36551)"/>
<defs>
<filter id="filter0_d_9197_36551" x="5.75" y="13.75" width="28.5" height="13.5" filterUnits="userSpaceOnUse" color-interpolation-filters="sRGB">
<feFlood flood-opacity="0" result="BackgroundImageFix"/>
<feColorMatrix in="SourceAlpha" type="matrix" values="0 0 0 0 0 0 0 0 0 0 0 0 0 0 0 0 0 0 127 0" result="hardAlpha"/>
<feOffset dy="1"/>
<feComposite in2="hardAlpha" operator="out"/>
<feColorMatrix type="matrix" values="0 0 0 0 0 0 0 0 0 0 0 0 0 0 0 0 0 0 1 0"/>
<feBlend mode="normal" in2="BackgroundImageFix" result="effect1_dropShadow_9197_36551"/>
<feBlend mode="normal" in="SourceGraphic" in2="effect1_dropShadow_9197_36551" result="shape"/>
</filter>
<linearGradient id="paint0_linear_9197_36551" x1="6" y1="14" x2="32.3661" y2="26.5279" gradientUnits="userSpaceOnUse">
<stop offset="0.583936" stop-color="#F5CFFC"/>
<stop offset="1" stop-color="#DC1FFF"/>
</linearGradient>
<linearGradient id="paint1_linear_9197_36551" x1="6" y1="14" x2="32.3661" y2="26.5279" gradientUnits="userSpaceOnUse">
<stop offset="0.583936" stop-color="#F5CFFC"/>
<stop offset="1" stop-color="#DC1FFF"/>
</linearGradient>
<linearGradient id="paint2_linear_9197_36551" x1="6" y1="14" x2="32.3661" y2="26.5279" gradientUnits="userSpaceOnUse">
<stop offset="0.583936" stop-color="#F5CFFC"/>
<stop offset="1" stop-color="#DC1FFF"/>
</linearGradient>
<linearGradient id="paint3_linear_9197_36551" x1="7.5" y1="6" x2="30.5" y2="38" gradientUnits="userSpaceOnUse">
<stop stop-color="#F6CFFD"/>
<stop offset="0.475962" stop-color="#BE01E0"/>
<stop offset="0.899038" stop-color="#DC1FFF"/>
</linearGradient>
</defs>
</svg>
