<svg width="40" height="40" viewBox="0 0 40 40" fill="none" xmlns="http://www.w3.org/2000/svg">
<circle cx="20" cy="20" r="20" fill="#8247E5"/>
<path d="M26.6867 15.4922C26.2115 15.2206 25.6005 15.2206 25.0574 15.4922L21.2559 17.7324L18.6762 19.158L14.9426 21.3982C14.4674 21.6697 13.8564 21.6697 13.3133 21.3982L10.3943 19.6332C9.91906 19.3616 9.57963 18.8185 9.57963 18.2076V14.8133C9.57963 14.2702 9.85117 13.7272 10.3943 13.3877L13.3133 11.6906C13.7885 11.4191 14.3995 11.4191 14.9426 11.6906L17.8616 13.4556C18.3368 13.7272 18.6762 14.2702 18.6762 14.8812V17.1214L21.2559 15.6279V13.3198C21.2559 12.7768 20.9843 12.2337 20.4413 11.8943L15.0104 8.70366C14.5352 8.43211 13.9243 8.43211 13.3812 8.70366L7.81462 11.9621C7.27154 12.2337 7 12.7768 7 13.3198V19.701C7 20.2441 7.27154 20.7872 7.81462 21.1266L13.3133 24.3172C13.7885 24.5888 14.3995 24.5888 14.9426 24.3172L18.6762 22.1449L21.2559 20.6514L24.9896 18.4791C25.4648 18.2076 26.0757 18.2076 26.6188 18.4791L29.5379 20.1762C30.0131 20.4478 30.3525 20.9909 30.3525 21.6018V24.9961C30.3525 25.5392 30.0809 26.0822 29.5379 26.4217L26.6867 28.1188C26.2115 28.3903 25.6005 28.3903 25.0574 28.1188L22.1384 26.4217C21.6632 26.1501 21.3238 25.6071 21.3238 24.9961V22.8238L18.7441 24.3172V26.5574C18.7441 27.1005 19.0157 27.6436 19.5587 27.983L25.0574 31.1736C25.5326 31.4452 26.1436 31.4452 26.6867 31.1736L32.1854 27.983C32.6606 27.7115 33 27.1684 33 26.5574V20.1084C33 19.5653 32.7285 19.0222 32.1854 18.6828L26.6867 15.4922Z" fill="white"/>
</svg>
