<svg width="32" height="32" viewBox="0 0 32 32" fill="none" xmlns="http://www.w3.org/2000/svg">
<circle cx="16" cy="16" r="15.5" fill="#FFDC00" stroke="#FFF199"/>
<path fill-rule="evenodd" clip-rule="evenodd" d="M7.22562 12.3887V13.421H6.19336V19.6145H7.22562V20.6468H24.774V19.6145H25.8063V13.421H24.774V12.3887H23.7417V13.421H22.7095V14.4533H21.6772V15.4855H20.645V14.4533H19.6127V13.421H18.5805V12.3887H17.5482V11.3565H16.5159V10.3242H15.4837V11.3565H14.4514V12.3887H13.4192V13.421H12.3869V14.4533H11.3546V15.4855H10.3224V14.4533H9.29013V13.421H8.25788V12.3887H7.22562ZM15.4837 15.4855V14.4533H16.5159V15.4855H17.5482V16.5178H16.5159V17.55H15.4837V16.5178H14.4514V15.4855H15.4837Z" fill="black" fill-opacity="0.25"/>
<path d="M11.3546 12.3887V13.421H12.3869V12.3887H11.3546Z" fill="black" fill-opacity="0.25"/>
<path d="M11.3546 11.3565H10.3224V12.3887H11.3546V11.3565Z" fill="black" fill-opacity="0.25"/>
<path d="M9.29013 12.3887V13.421H10.3224V12.3887H9.29013Z" fill="black" fill-opacity="0.25"/>
<path d="M20.645 13.421V12.3887H19.6127V13.421H20.645Z" fill="black" fill-opacity="0.25"/>
<path d="M21.6772 12.3887V11.3565H20.645V12.3887H21.6772Z" fill="black" fill-opacity="0.25"/>
<path d="M22.7095 13.421V12.3887H21.6772V13.421H22.7095Z" fill="black" fill-opacity="0.25"/>
<path d="M24.774 22.7113H25.8063V20.6468H24.774V22.7113Z" fill="black" fill-opacity="0.25"/>
<path d="M7.22562 23.7436H24.774V22.7113H7.22562V23.7436Z" fill="black" fill-opacity="0.25"/>
<path d="M6.19336 20.6468V22.7113H7.22562V20.6468H6.19336Z" fill="black" fill-opacity="0.25"/>
<path fill-rule="evenodd" clip-rule="evenodd" d="M7.22562 11.3575V12.3897H6.19336V18.5833H7.22562V19.6155H24.774V18.5833H25.8063V12.3897H24.774V11.3575H23.7417V12.3897H22.7095V13.422H21.6772V14.4543H20.645V13.422H19.6127V12.3897H18.5805V11.3575H17.5482V10.3252H16.5159V9.29297H15.4837V10.3252H14.4514V11.3575H13.4192V12.3897H12.3869V13.422H11.3546V14.4543H10.3224V13.422H9.29013V12.3897H8.25788V11.3575H7.22562ZM15.4837 14.4543V13.422H16.5159V14.4543H17.5482V15.4865H16.5159V16.5188H15.4837V15.4865H14.4514V14.4543H15.4837Z" fill="#2F3045"/>
<path d="M11.3546 11.3575V12.3897H12.3869V11.3575H11.3546Z" fill="#2F3045"/>
<path d="M11.3546 10.3252H10.3224V11.3575H11.3546V10.3252Z" fill="#2F3045"/>
<path d="M9.29013 11.3575V12.3897H10.3224V11.3575H9.29013Z" fill="#2F3045"/>
<path d="M20.645 12.3897V11.3575H19.6127V12.3897H20.645Z" fill="#2F3045"/>
<path d="M21.6772 11.3575V10.3252H20.645V11.3575H21.6772Z" fill="#2F3045"/>
<path d="M22.7095 12.3897V11.3575H21.6772V12.3897H22.7095Z" fill="#2F3045"/>
<path d="M24.774 21.6801H25.8063V19.6155H24.774V21.6801Z" fill="#2F3045"/>
<path d="M7.22562 22.7123H24.774V21.6801H7.22562V22.7123Z" fill="#2F3045"/>
<path d="M6.19336 19.6155V21.6801H7.22562V19.6155H6.19336Z" fill="#2F3045"/>
</svg>
