<svg width="369" height="369" viewBox="0 0 369 369" fill="none" xmlns="http://www.w3.org/2000/svg">
<circle cx="184.5" cy="184.5" r="184.5" fill="black"/>
<path d="M291.864 240.957L256.041 279.353C255.266 280.187 254.328 280.852 253.284 281.308C252.241 281.763 251.115 281.999 249.976 282H80.1621C79.3522 282 78.56 281.763 77.8825 281.319C77.205 280.876 76.6716 280.244 76.3477 279.502C76.0237 278.76 75.9232 277.94 76.0585 277.142C76.1939 276.344 76.5591 275.602 77.1095 275.008L112.892 236.612C113.667 235.778 114.605 235.113 115.648 234.657C116.692 234.202 117.818 233.966 118.957 233.965H288.771C289.587 233.948 290.392 234.173 291.081 234.612C291.771 235.051 292.316 235.684 292.646 236.431C292.978 237.179 293.079 238.007 292.939 238.813C292.8 239.618 292.426 240.364 291.864 240.957ZM256.041 163.62C255.263 162.79 254.324 162.127 253.281 161.672C252.239 161.217 251.114 160.979 249.976 160.973H80.1621C79.3522 160.973 78.56 161.21 77.8825 161.654C77.205 162.097 76.6716 162.729 76.3477 163.471C76.0237 164.213 75.9232 165.033 76.0585 165.831C76.1939 166.629 76.5591 167.371 77.1095 167.965L112.892 206.381C113.669 207.211 114.609 207.874 115.651 208.329C116.694 208.784 117.819 209.022 118.957 209.028H288.771C289.579 209.024 290.368 208.784 291.043 208.339C291.718 207.894 292.248 207.262 292.569 206.521C292.891 205.78 292.99 204.961 292.852 204.165C292.717 203.368 292.353 202.629 291.803 202.036L256.041 163.62ZM80.1621 136.036H249.976C251.115 136.035 252.241 135.799 253.284 135.343C254.328 134.888 255.266 134.223 256.041 133.389L291.864 94.9929C292.426 94.3999 292.8 93.6538 292.939 92.8485C293.079 92.0432 292.978 91.2147 292.646 90.4673C292.316 89.7199 291.771 89.0869 291.081 88.648C290.392 88.2092 289.587 87.984 288.771 88.0009H118.957C117.818 88.0021 116.692 88.2378 115.648 88.6932C114.605 89.1487 113.667 89.8142 112.892 90.6482L77.1095 129.044C76.5591 129.638 76.1939 130.379 76.0585 131.178C75.9232 131.976 76.0237 132.796 76.3477 133.538C76.6716 134.28 77.205 134.912 77.8825 135.355C78.56 135.799 79.3522 136.035 80.1621 136.036Z" fill="url(#paint0_linear_15059_33776)"/>
<defs>
<linearGradient id="paint0_linear_15059_33776" x1="94.3133" y1="286.628" x2="272.299" y2="85.8925" gradientUnits="userSpaceOnUse">
<stop offset="0.08" stop-color="#9945FF"/>
<stop offset="0.3" stop-color="#8752F3"/>
<stop offset="0.5" stop-color="#5497D5"/>
<stop offset="0.6" stop-color="#43B4CA"/>
<stop offset="0.72" stop-color="#28E0B9"/>
<stop offset="0.97" stop-color="#19FB9B"/>
</linearGradient>
</defs>
</svg>
