<svg width="32" height="32" viewBox="0 0 32 32" fill="none" xmlns="http://www.w3.org/2000/svg">
<g clip-path="url(#clip0_995_28178)">
<path d="M16 31.5C24.5604 31.5 31.5 24.5604 31.5 16C31.5 7.43959 24.5604 0.5 16 0.5C7.43959 0.5 0.5 7.43959 0.5 16C0.5 24.5604 7.43959 31.5 16 31.5Z" fill="#23292F" stroke="#3D4752"/>
<g clip-path="url(#clip1_995_28178)">
<path d="M22.3633 9H24.9648L19.5508 14.0347C17.5901 15.857 14.4113 15.857 12.4492 14.0347L7.03302 9H9.63669L13.75 12.8246C14.3493 13.3793 15.1569 13.6903 15.9984 13.6903C16.8398 13.6903 17.6475 13.3793 18.2468 12.8246L22.3633 9Z" fill="white"/>
<path d="M9.60332 22.9999H7L12.4492 17.9341C14.4099 16.1118 17.5887 16.1118 19.5508 17.9341L25 22.9999H22.3984L18.25 19.1443C17.6507 18.5895 16.843 18.2785 16.0016 18.2785C15.1601 18.2785 14.3525 18.5895 13.7532 19.1443L9.60332 22.9999Z" fill="white"/>
</g>
</g>
<defs>
<clipPath id="clip0_995_28178">
<rect width="32" height="32" fill="white"/>
</clipPath>
<clipPath id="clip1_995_28178">
<rect width="18" height="14" fill="white" transform="translate(7 9)"/>
</clipPath>
</defs>
</svg>
